# MagicaVoxel @ Ephtracy

# group
g Testmodel_sopwith camel

# material
mtllib Testmodel_sopwith camel.mtl
usemtl palette

# normals
vn -1 0 0
vn 1 0 0
vn 0 0 1
vn 0 0 -1
vn 0 -1 0
vn 0 1 0

# texcoords
vt 0.595703 0.5
vt 0.599609 0.5
vt 0.603516 0.5
vt 0.607422 0.5
vt 0.611328 0.5

# verts
v -13 4 7
v -13 4 5
v -13 5 7
v -13 5 5
v -13 7 8
v -13 7 6
v -13 8 8
v -13 8 6
v -11 3 7
v -11 3 5
v -11 4 7
v -11 4 5
v -11 6 9
v -11 6 8
v -11 6 7
v -11 6 6
v -11 7 9
v -11 7 8
v -11 7 7
v -11 7 6
v -9 4 7
v -9 4 6
v -9 6 7
v -9 6 6
v -6 4 6
v -6 4 5
v -6 6 6
v -6 6 5
v -3 1 11
v -3 1 10
v -3 2 11
v -3 2 10
v -3 6 -6
v -3 6 -8
v -3 7 -6
v -3 7 -8
v -2 0 7
v -2 0 5
v -2 1 7
v -2 1 5
v -2 2 11
v -2 2 10
v -2 3 11
v -2 3 10
v -2 3 5
v -2 3 -1
v -2 3 -2
v -2 3 -3
v -2 3 -4
v -2 4 7
v -2 4 5
v -2 4 -2
v -2 4 -3
v -2 4 -4
v -2 4 -7
v -2 5 7
v -2 5 -1
v -2 5 -4
v -2 5 -7
v -1 2 7
v -1 2 -1
v -1 3 11
v -1 3 10
v -1 3 7
v -1 3 -1
v -1 3 -4
v -1 3 -5
v -1 4 -4
v -1 4 -5
v -1 5 11
v -1 5 10
v -1 5 7
v -1 5 3
v -1 5 -1
v -1 5 -4
v -1 5 -7
v -1 6 3
v -1 6 -5
v -1 6 -6
v -1 6 -7
v -1 6 -8
v -1 7 -6
v -1 7 -7
v -1 8 -5
v -1 8 -6
v -1 8 -7
v -1 8 -8
v 1 0 7
v 1 0 5
v 1 1 7
v 1 1 5
v 1 5 11
v 1 5 10
v 1 6 11
v 1 6 10
v 2 6 11
v 2 6 10
v 2 6 -7
v 2 6 -8
v 2 7 11
v 2 7 10
v 2 7 -7
v 2 7 -8
v 5 4 6
v 5 4 5
v 5 6 6
v 5 6 5
v 8 4 7
v 8 4 6
v 8 6 7
v 8 6 6
v 11 4 7
v 11 4 5
v 11 5 7
v 11 5 5
v 11 7 8
v 11 7 7
v 11 7 6
v 11 8 8
v 11 8 6
v -11 4 7
v -11 4 5
v -11 5 7
v -11 5 5
v -11 7 8
v -11 7 7
v -11 7 6
v -11 8 8
v -11 8 6
v -8 4 7
v -8 4 6
v -8 6 7
v -8 6 6
v -5 4 6
v -5 4 5
v -5 6 6
v -5 6 5
v -2 1 11
v -2 1 10
v -2 2 11
v -2 2 10
v -2 6 -7
v -2 6 -8
v -2 7 -7
v -2 7 -8
v -1 0 7
v -1 0 5
v -1 1 7
v -1 1 5
v -1 2 11
v -1 2 10
v -1 3 11
v -1 3 10
v 1 2 7
v 1 2 -1
v 1 3 11
v 1 3 10
v 1 3 7
v 1 3 -1
v 1 3 -4
v 1 3 -5
v 1 4 -4
v 1 4 -5
v 1 5 11
v 1 5 10
v 1 5 7
v 1 5 3
v 1 5 -1
v 1 5 -4
v 1 5 -7
v 1 6 3
v 1 6 -5
v 1 6 -6
v 1 6 -7
v 1 6 -8
v 1 7 -6
v 1 7 -7
v 1 8 -5
v 1 8 -6
v 1 8 -7
v 1 8 -8
v 2 0 7
v 2 0 5
v 2 1 7
v 2 1 5
v 2 3 5
v 2 3 -1
v 2 3 -2
v 2 3 -3
v 2 3 -4
v 2 4 7
v 2 4 5
v 2 4 -2
v 2 4 -3
v 2 4 -4
v 2 4 -7
v 2 5 11
v 2 5 10
v 2 5 7
v 2 5 -1
v 2 5 -4
v 2 5 -7
v 2 6 11
v 2 6 10
v 3 6 11
v 3 6 10
v 3 6 -6
v 3 6 -8
v 3 7 11
v 3 7 10
v 3 7 -6
v 3 7 -8
v 6 4 6
v 6 4 5
v 6 6 6
v 6 6 5
v 9 4 7
v 9 4 6
v 9 6 7
v 9 6 6
v 11 3 7
v 11 3 5
v 11 4 7
v 11 4 5
v 11 6 9
v 11 6 8
v 11 6 7
v 11 6 6
v 11 7 9
v 11 7 8
v 11 7 7
v 11 7 6
v 13 4 7
v 13 4 5
v 13 5 7
v 13 5 5
v 13 7 8
v 13 7 6
v 13 8 8
v 13 8 6
v -3 1 11
v -3 2 11
v -2 1 11
v -2 2 11
v -2 3 11
v -1 2 11
v -1 3 11
v -1 5 11
v 1 3 11
v 1 5 11
v 1 6 11
v 2 5 11
v 2 6 11
v 2 7 11
v 3 6 11
v 3 7 11
v -11 6 9
v -11 7 9
v -10 6 9
v -10 7 9
v -9 6 9
v -9 7 9
v -8 6 9
v -8 7 9
v -7 6 9
v -7 7 9
v 7 6 9
v 7 7 9
v 8 6 9
v 8 7 9
v 9 6 9
v 9 7 9
v 10 6 9
v 10 7 9
v 11 6 9
v 11 7 9
v -13 7 8
v -13 8 8
v -11 7 8
v -11 8 8
v 11 7 8
v 11 8 8
v 13 7 8
v 13 8 8
v -13 4 7
v -13 5 7
v -11 3 7
v -11 4 7
v -11 5 7
v -9 4 7
v -9 6 7
v -8 4 7
v -8 6 7
v -2 0 7
v -2 1 7
v -2 4 7
v -2 5 7
v -1 0 7
v -1 1 7
v -1 2 7
v -1 3 7
v -1 5 7
v 1 0 7
v 1 1 7
v 1 2 7
v 1 3 7
v 1 5 7
v 2 0 7
v 2 1 7
v 2 4 7
v 2 5 7
v 8 4 7
v 8 6 7
v 9 4 7
v 9 6 7
v 11 3 7
v 11 4 7
v 11 5 7
v 13 4 7
v 13 5 7
v -6 4 6
v -6 6 6
v -5 4 6
v -5 6 6
v 5 4 6
v 5 6 6
v 6 4 6
v 6 6 6
v -1 5 3
v -1 6 3
v 1 5 3
v 1 6 3
v -1 6 -5
v -1 8 -5
v 1 6 -5
v 1 8 -5
v -3 6 -6
v -3 7 -6
v -1 6 -6
v -1 7 -6
v 1 6 -6
v 1 7 -6
v 3 6 -6
v 3 7 -6
v -3 1 10
v -3 2 10
v -2 1 10
v -2 2 10
v -2 3 10
v -1 2 10
v -1 3 10
v 1 5 10
v 1 6 10
v 2 5 10
v 2 6 10
v 2 7 10
v 3 6 10
v 3 7 10
v -13 7 6
v -13 8 6
v -11 6 6
v -11 7 6
v -11 8 6
v -10 6 6
v -10 7 6
v -9 4 6
v -9 6 6
v -9 7 6
v -8 4 6
v -8 6 6
v -8 7 6
v -7 6 6
v -7 7 6
v -6 6 6
v -5 6 6
v 5 6 6
v 6 6 6
v 7 6 6
v 7 7 6
v 8 4 6
v 8 6 6
v 8 7 6
v 9 4 6
v 9 6 6
v 9 7 6
v 10 6 6
v 10 7 6
v 11 6 6
v 11 7 6
v 11 8 6
v 13 7 6
v 13 8 6
v -13 4 5
v -13 5 5
v -11 3 5
v -11 4 5
v -11 5 5
v -6 4 5
v -6 6 5
v -5 4 5
v -5 6 5
v -2 0 5
v -2 1 5
v -2 3 5
v -2 4 5
v -1 0 5
v -1 1 5
v 1 0 5
v 1 1 5
v 2 0 5
v 2 1 5
v 2 3 5
v 2 4 5
v 5 4 5
v 5 6 5
v 6 4 5
v 6 6 5
v 11 3 5
v 11 4 5
v 11 5 5
v 13 4 5
v 13 5 5
v -1 2 -1
v -1 3 -1
v 1 2 -1
v 1 3 -1
v -2 3 -4
v -2 4 -4
v -1 3 -4
v -1 4 -4
v 1 3 -4
v 1 4 -4
v 2 3 -4
v 2 4 -4
v -1 3 -5
v -1 4 -5
v 1 3 -5
v 1 4 -5
v -2 4 -7
v -2 5 -7
v -2 6 -7
v -2 7 -7
v -1 5 -7
v -1 6 -7
v -1 7 -7
v 1 5 -7
v 1 6 -7
v 1 7 -7
v 2 4 -7
v 2 5 -7
v 2 6 -7
v 2 7 -7
v -3 6 -8
v -3 7 -8
v -2 6 -8
v -2 7 -8
v -1 6 -8
v -1 8 -8
v 1 6 -8
v 1 8 -8
v 2 6 -8
v 2 7 -8
v 3 6 -8
v 3 7 -8
v -2 0 7
v -1 0 7
v 1 0 7
v 2 0 7
v -2 0 5
v -1 0 5
v 1 0 5
v 2 0 5
v -3 1 11
v -2 1 11
v -3 1 10
v -2 1 10
v -2 2 11
v -1 2 11
v -2 2 10
v -1 2 10
v -1 2 7
v 1 2 7
v -1 2 -1
v 1 2 -1
v -1 3 11
v 1 3 11
v -1 3 10
v 1 3 10
v -11 3 7
v -1 3 7
v 1 3 7
v 11 3 7
v -11 3 5
v -2 3 5
v 2 3 5
v 11 3 5
v -2 3 -1
v -1 3 -1
v 1 3 -1
v 2 3 -1
v -2 3 -2
v -1 3 -2
v 1 3 -2
v 2 3 -2
v -2 3 -3
v -1 3 -3
v 1 3 -3
v 2 3 -3
v -2 3 -4
v -1 3 -4
v 1 3 -4
v 2 3 -4
v -1 3 -5
v 1 3 -5
v -13 4 7
v -11 4 7
v 11 4 7
v 13 4 7
v -13 4 5
v -11 4 5
v 11 4 5
v 13 4 5
v -2 4 -4
v -1 4 -4
v 1 4 -4
v 2 4 -4
v -1 4 -5
v 1 4 -5
v -2 4 -7
v 2 4 -7
v 1 5 11
v 2 5 11
v 1 5 10
v 2 5 10
v 2 6 11
v 3 6 11
v 2 6 10
v 3 6 10
v -11 6 9
v -10 6 9
v -9 6 9
v -8 6 9
v -7 6 9
v 7 6 9
v 8 6 9
v 9 6 9
v 10 6 9
v 11 6 9
v -11 6 8
v -10 6 8
v -9 6 8
v -8 6 8
v -7 6 8
v -6 6 8
v 6 6 8
v 7 6 8
v 8 6 8
v 9 6 8
v 10 6 8
v 11 6 8
v -11 6 7
v -10 6 7
v -9 6 7
v -8 6 7
v -7 6 7
v -6 6 7
v 6 6 7
v 7 6 7
v 8 6 7
v 9 6 7
v 10 6 7
v 11 6 7
v -11 6 6
v -10 6 6
v -9 6 6
v -8 6 6
v -7 6 6
v -6 6 6
v -5 6 6
v 5 6 6
v 6 6 6
v 7 6 6
v 8 6 6
v 9 6 6
v 10 6 6
v 11 6 6
v -3 6 -6
v -1 6 -6
v 1 6 -6
v 3 6 -6
v -2 6 -7
v -1 6 -7
v 1 6 -7
v 2 6 -7
v -3 6 -8
v -2 6 -8
v -1 6 -8
v 1 6 -8
v 2 6 -8
v 3 6 -8
v -13 7 8
v -11 7 8
v 11 7 8
v 13 7 8
v -11 7 7
v 11 7 7
v -13 7 6
v -11 7 6
v 11 7 6
v 13 7 6
v -2 1 7
v -1 1 7
v 1 1 7
v 2 1 7
v -2 1 5
v -1 1 5
v 1 1 5
v 2 1 5
v -3 2 11
v -2 2 11
v -3 2 10
v -2 2 10
v -2 3 11
v -1 3 11
v -2 3 10
v -1 3 10
v -11 4 7
v -9 4 7
v -8 4 7
v -2 4 7
v 2 4 7
v 8 4 7
v 9 4 7
v 11 4 7
v -9 4 6
v -8 4 6
v -6 4 6
v -5 4 6
v 5 4 6
v 6 4 6
v 8 4 6
v 9 4 6
v -11 4 5
v -6 4 5
v -5 4 5
v -2 4 5
v 2 4 5
v 5 4 5
v 6 4 5
v 11 4 5
v -1 5 11
v 1 5 11
v -1 5 10
v 1 5 10
v -13 5 7
v -11 5 7
v -2 5 7
v -1 5 7
v 1 5 7
v 2 5 7
v 11 5 7
v 13 5 7
v -13 5 5
v -11 5 5
v 11 5 5
v 13 5 5
v -1 5 3
v 1 5 3
v -2 5 -1
v -1 5 -1
v 1 5 -1
v 2 5 -1
v -2 5 -4
v -1 5 -4
v 1 5 -4
v 2 5 -4
v -2 5 -7
v -1 5 -7
v 1 5 -7
v 2 5 -7
v 1 6 11
v 2 6 11
v 1 6 10
v 2 6 10
v -6 6 6
v -5 6 6
v 5 6 6
v 6 6 6
v -6 6 5
v -5 6 5
v 5 6 5
v 6 6 5
v -1 6 3
v 1 6 3
v -1 6 -5
v 1 6 -5
v 2 7 11
v 3 7 11
v 2 7 10
v 3 7 10
v -11 7 9
v -10 7 9
v -9 7 9
v -8 7 9
v -7 7 9
v 7 7 9
v 8 7 9
v 9 7 9
v 10 7 9
v 11 7 9
v -11 7 8
v -10 7 8
v -9 7 8
v -8 7 8
v -7 7 8
v -6 7 8
v 6 7 8
v 7 7 8
v 8 7 8
v 9 7 8
v 10 7 8
v 11 7 8
v -11 7 7
v -10 7 7
v -9 7 7
v -8 7 7
v -7 7 7
v -6 7 7
v 6 7 7
v 7 7 7
v 8 7 7
v 9 7 7
v 10 7 7
v 11 7 7
v -11 7 6
v -10 7 6
v -9 7 6
v -8 7 6
v -7 7 6
v 7 7 6
v 8 7 6
v 9 7 6
v 10 7 6
v 11 7 6
v -3 7 -6
v -1 7 -6
v 1 7 -6
v 3 7 -6
v -2 7 -7
v -1 7 -7
v 1 7 -7
v 2 7 -7
v -3 7 -8
v -2 7 -8
v 2 7 -8
v 3 7 -8
v -13 8 8
v -11 8 8
v 11 8 8
v 13 8 8
v -13 8 6
v -11 8 6
v 11 8 6
v 13 8 6
v -1 8 -5
v 1 8 -5
v -1 8 -6
v 1 8 -6
v -1 8 -7
v 1 8 -7
v -1 8 -8
v 1 8 -8

# faces
f 3/1/1 2/1/1 1/1/1
f 4/1/1 2/1/1 3/1/1
f 7/1/1 6/1/1 5/1/1
f 8/1/1 6/1/1 7/1/1
f 11/1/1 10/1/1 9/1/1
f 12/1/1 10/1/1 11/1/1
f 17/1/1 14/1/1 13/1/1
f 18/5/1 15/5/1 14/5/1
f 18/1/1 14/1/1 17/1/1
f 19/1/1 16/1/1 15/1/1
f 19/5/1 15/5/1 18/5/1
f 20/1/1 16/1/1 19/1/1
f 23/1/1 22/1/1 21/1/1
f 24/1/1 22/1/1 23/1/1
f 27/1/1 26/1/1 25/1/1
f 28/1/1 26/1/1 27/1/1
f 31/3/1 30/3/1 29/3/1
f 32/3/1 30/3/1 31/3/1
f 35/1/1 34/1/1 33/1/1
f 36/1/1 34/1/1 35/1/1
f 39/1/1 38/1/1 37/1/1
f 40/1/1 38/1/1 39/1/1
f 43/3/1 42/3/1 41/3/1
f 44/3/1 42/3/1 43/3/1
f 51/1/1 46/1/1 45/1/1
f 52/4/1 48/4/1 47/4/1
f 52/5/1 47/5/1 46/5/1
f 53/5/1 49/5/1 48/5/1
f 53/4/1 48/4/1 52/4/1
f 54/5/1 49/5/1 53/5/1
f 56/1/1 51/1/1 50/1/1
f 57/5/1 52/5/1 46/5/1
f 57/1/1 51/1/1 56/1/1
f 57/1/1 46/1/1 51/1/1
f 57/5/1 54/5/1 53/5/1
f 57/5/1 53/5/1 52/5/1
f 58/1/1 55/1/1 54/1/1
f 58/5/1 54/5/1 57/5/1
f 59/1/1 55/1/1 58/1/1
f 64/1/1 61/1/1 60/1/1
f 65/1/1 61/1/1 64/1/1
f 68/1/1 67/1/1 66/1/1
f 69/1/1 67/1/1 68/1/1
f 70/2/1 63/2/1 62/2/1
f 71/1/1 64/1/1 63/1/1
f 71/2/1 63/2/1 70/2/1
f 72/1/1 64/1/1 71/1/1
f 77/1/1 75/1/1 74/1/1
f 77/1/1 76/1/1 75/1/1
f 77/1/1 74/1/1 73/1/1
f 78/1/1 76/1/1 77/1/1
f 79/1/1 76/1/1 78/1/1
f 80/1/1 76/1/1 79/1/1
f 82/5/1 79/5/1 78/5/1
f 83/4/1 81/4/1 80/4/1
f 84/5/1 82/5/1 78/5/1
f 85/2/1 83/2/1 82/2/1
f 85/5/1 82/5/1 84/5/1
f 86/4/1 81/4/1 83/4/1
f 86/2/1 83/2/1 85/2/1
f 87/4/1 81/4/1 86/4/1
f 90/1/1 89/1/1 88/1/1
f 91/1/1 89/1/1 90/1/1
f 94/3/1 93/3/1 92/3/1
f 95/3/1 93/3/1 94/3/1
f 100/3/1 97/3/1 96/3/1
f 101/3/1 97/3/1 100/3/1
f 102/1/1 99/1/1 98/1/1
f 103/1/1 99/1/1 102/1/1
f 106/1/1 105/1/1 104/1/1
f 107/1/1 105/1/1 106/1/1
f 110/1/1 109/1/1 108/1/1
f 111/1/1 109/1/1 110/1/1
f 114/1/1 113/1/1 112/1/1
f 115/1/1 113/1/1 114/1/1
f 119/1/1 117/1/1 116/1/1
f 119/1/1 118/1/1 117/1/1
f 120/1/1 118/1/1 119/1/1
f 121/1/2 122/1/2 123/1/2
f 123/1/2 122/1/2 124/1/2
f 125/1/2 126/1/2 128/1/2
f 126/1/2 127/1/2 128/1/2
f 128/1/2 127/1/2 129/1/2
f 130/1/2 131/1/2 132/1/2
f 132/1/2 131/1/2 133/1/2
f 134/1/2 135/1/2 136/1/2
f 136/1/2 135/1/2 137/1/2
f 138/3/2 139/3/2 140/3/2
f 140/3/2 139/3/2 141/3/2
f 142/1/2 143/1/2 144/1/2
f 144/1/2 143/1/2 145/1/2
f 146/1/2 147/1/2 148/1/2
f 148/1/2 147/1/2 149/1/2
f 150/3/2 151/3/2 152/3/2
f 152/3/2 151/3/2 153/3/2
f 154/1/2 155/1/2 158/1/2
f 158/1/2 155/1/2 159/1/2
f 160/1/2 161/1/2 162/1/2
f 162/1/2 161/1/2 163/1/2
f 156/2/2 157/2/2 164/2/2
f 157/1/2 158/1/2 165/1/2
f 164/2/2 157/2/2 165/2/2
f 165/1/2 158/1/2 166/1/2
f 168/1/2 169/1/2 171/1/2
f 169/1/2 170/1/2 171/1/2
f 167/1/2 168/1/2 171/1/2
f 171/1/2 170/1/2 172/1/2
f 172/1/2 170/1/2 173/1/2
f 173/1/2 170/1/2 174/1/2
f 172/5/2 173/5/2 176/5/2
f 174/4/2 175/4/2 177/4/2
f 172/5/2 176/5/2 178/5/2
f 176/2/2 177/2/2 179/2/2
f 178/5/2 176/5/2 179/5/2
f 177/4/2 175/4/2 180/4/2
f 179/2/2 177/2/2 180/2/2
f 180/4/2 175/4/2 181/4/2
f 182/1/2 183/1/2 184/1/2
f 184/1/2 183/1/2 185/1/2
f 186/1/2 187/1/2 192/1/2
f 187/5/2 188/5/2 193/5/2
f 188/4/2 189/4/2 193/4/2
f 189/5/2 190/5/2 194/5/2
f 193/4/2 189/4/2 194/4/2
f 194/5/2 190/5/2 195/5/2
f 191/1/2 192/1/2 199/1/2
f 187/5/2 193/5/2 200/5/2
f 199/1/2 192/1/2 200/1/2
f 192/1/2 187/1/2 200/1/2
f 193/5/2 194/5/2 200/5/2
f 194/5/2 195/5/2 200/5/2
f 195/1/2 196/1/2 201/1/2
f 200/5/2 195/5/2 201/5/2
f 201/1/2 196/1/2 202/1/2
f 197/3/2 198/3/2 203/3/2
f 203/3/2 198/3/2 204/3/2
f 205/3/2 206/3/2 209/3/2
f 209/3/2 206/3/2 210/3/2
f 207/1/2 208/1/2 211/1/2
f 211/1/2 208/1/2 212/1/2
f 213/1/2 214/1/2 215/1/2
f 215/1/2 214/1/2 216/1/2
f 217/1/2 218/1/2 219/1/2
f 219/1/2 218/1/2 220/1/2
f 221/1/2 222/1/2 223/1/2
f 223/1/2 222/1/2 224/1/2
f 225/1/2 226/1/2 229/1/2
f 226/5/2 227/5/2 230/5/2
f 229/1/2 226/1/2 230/1/2
f 227/1/2 228/1/2 231/1/2
f 230/5/2 227/5/2 231/5/2
f 231/1/2 228/1/2 232/1/2
f 233/1/2 234/1/2 235/1/2
f 235/1/2 234/1/2 236/1/2
f 237/1/2 238/1/2 239/1/2
f 239/1/2 238/1/2 240/1/2
f 243/3/3 242/3/3 241/3/3
f 244/3/3 242/3/3 243/3/3
f 246/3/3 245/3/3 244/3/3
f 247/3/3 245/3/3 246/3/3
f 249/2/3 248/2/3 247/2/3
f 250/2/3 248/2/3 249/2/3
f 252/3/3 251/3/3 250/3/3
f 253/3/3 251/3/3 252/3/3
f 255/3/3 254/3/3 253/3/3
f 256/3/3 254/3/3 255/3/3
f 259/1/3 258/1/3 257/1/3
f 260/1/3 258/1/3 259/1/3
f 261/5/3 260/5/3 259/5/3
f 262/5/3 260/5/3 261/5/3
f 263/2/3 262/2/3 261/2/3
f 264/2/3 262/2/3 263/2/3
f 265/5/3 264/5/3 263/5/3
f 266/5/3 264/5/3 265/5/3
f 267/1/3 266/1/3 265/1/3
f 268/1/3 266/1/3 267/1/3
f 269/5/3 268/5/3 267/5/3
f 270/5/3 268/5/3 269/5/3
f 271/2/3 270/2/3 269/2/3
f 272/2/3 270/2/3 271/2/3
f 273/5/3 272/5/3 271/5/3
f 274/5/3 272/5/3 273/5/3
f 275/1/3 274/1/3 273/1/3
f 276/1/3 274/1/3 275/1/3
f 279/1/3 278/1/3 277/1/3
f 280/1/3 278/1/3 279/1/3
f 283/1/3 282/1/3 281/1/3
f 284/1/3 282/1/3 283/1/3
f 288/1/3 286/1/3 285/1/3
f 289/1/3 286/1/3 288/1/3
f 290/1/3 288/1/3 287/1/3
f 292/1/3 290/1/3 287/1/3
f 292/1/3 291/1/3 290/1/3
f 293/1/3 291/1/3 292/1/3
f 296/1/3 292/1/3 287/1/3
f 298/1/3 295/1/3 294/1/3
f 299/1/3 295/1/3 298/1/3
f 301/1/3 297/1/3 296/1/3
f 301/1/3 296/1/3 287/1/3
f 302/1/3 297/1/3 301/1/3
f 305/1/3 301/1/3 300/1/3
f 306/1/3 301/1/3 305/1/3
f 308/1/3 304/1/3 303/1/3
f 309/1/3 304/1/3 308/1/3
f 310/1/3 307/1/3 306/1/3
f 311/1/3 307/1/3 310/1/3
f 312/1/3 310/1/3 306/1/3
f 314/1/3 312/1/3 306/1/3
f 314/1/3 313/1/3 312/1/3
f 315/1/3 313/1/3 314/1/3
f 316/1/3 314/1/3 306/1/3
f 317/1/3 314/1/3 316/1/3
f 319/1/3 318/1/3 317/1/3
f 320/1/3 318/1/3 319/1/3
f 323/1/3 322/1/3 321/1/3
f 324/1/3 322/1/3 323/1/3
f 327/1/3 326/1/3 325/1/3
f 328/1/3 326/1/3 327/1/3
f 331/1/3 330/1/3 329/1/3
f 332/1/3 330/1/3 331/1/3
f 335/5/3 334/5/3 333/5/3
f 336/5/3 334/5/3 335/5/3
f 339/1/3 338/1/3 337/1/3
f 340/1/3 338/1/3 339/1/3
f 343/1/3 342/1/3 341/1/3
f 344/1/3 342/1/3 343/1/3
f 345/3/4 346/3/4 347/3/4
f 347/3/4 346/3/4 348/3/4
f 348/3/4 349/3/4 350/3/4
f 350/3/4 349/3/4 351/3/4
f 352/3/4 353/3/4 354/3/4
f 354/3/4 353/3/4 355/3/4
f 355/3/4 356/3/4 357/3/4
f 357/3/4 356/3/4 358/3/4
f 359/1/4 360/1/4 362/1/4
f 362/1/4 360/1/4 363/1/4
f 361/1/4 362/1/4 364/1/4
f 364/1/4 362/1/4 365/1/4
f 364/5/4 365/5/4 367/5/4
f 367/5/4 365/5/4 368/5/4
f 366/1/4 367/1/4 369/1/4
f 367/2/4 368/2/4 370/2/4
f 369/1/4 367/1/4 370/1/4
f 370/2/4 368/2/4 371/2/4
f 370/5/4 371/5/4 372/5/4
f 372/5/4 371/5/4 373/5/4
f 372/1/4 373/1/4 374/1/4
f 374/1/4 373/1/4 375/1/4
f 375/1/4 373/1/4 376/1/4
f 376/1/4 373/1/4 377/1/4
f 377/1/4 373/1/4 378/1/4
f 378/1/4 373/1/4 379/1/4
f 378/5/4 379/5/4 381/5/4
f 381/5/4 379/5/4 382/5/4
f 380/1/4 381/1/4 383/1/4
f 381/2/4 382/2/4 384/2/4
f 383/1/4 381/1/4 384/1/4
f 384/2/4 382/2/4 385/2/4
f 384/5/4 385/5/4 386/5/4
f 386/5/4 385/5/4 387/5/4
f 386/1/4 387/1/4 388/1/4
f 388/1/4 387/1/4 389/1/4
f 389/1/4 390/1/4 391/1/4
f 391/1/4 390/1/4 392/1/4
f 393/1/4 394/1/4 396/1/4
f 396/1/4 394/1/4 397/1/4
f 395/1/4 396/1/4 398/1/4
f 395/1/4 398/1/4 400/1/4
f 398/1/4 399/1/4 400/1/4
f 400/1/4 399/1/4 401/1/4
f 395/1/4 400/1/4 404/1/4
f 404/1/4 400/1/4 405/1/4
f 402/1/4 403/1/4 406/1/4
f 406/1/4 403/1/4 407/1/4
f 408/1/4 409/1/4 410/1/4
f 410/1/4 409/1/4 411/1/4
f 412/1/4 413/1/4 414/1/4
f 412/1/4 414/1/4 416/1/4
f 414/1/4 415/1/4 416/1/4
f 416/1/4 415/1/4 417/1/4
f 412/1/4 416/1/4 418/1/4
f 418/1/4 416/1/4 419/1/4
f 419/1/4 420/1/4 421/1/4
f 421/1/4 420/1/4 422/1/4
f 423/1/4 424/1/4 425/1/4
f 425/1/4 424/1/4 426/1/4
f 427/5/4 428/5/4 429/5/4
f 429/5/4 428/5/4 430/5/4
f 431/5/4 432/5/4 433/5/4
f 433/5/4 432/5/4 434/5/4
f 435/1/4 436/1/4 437/1/4
f 437/1/4 436/1/4 438/1/4
f 439/1/4 440/1/4 443/1/4
f 441/1/4 442/1/4 444/1/4
f 444/1/4 442/1/4 445/1/4
f 439/1/4 443/1/4 446/1/4
f 443/1/4 444/1/4 446/1/4
f 446/1/4 444/1/4 447/1/4
f 439/1/4 446/1/4 449/1/4
f 449/1/4 446/1/4 450/1/4
f 447/1/4 448/1/4 451/1/4
f 451/1/4 448/1/4 452/1/4
f 453/1/4 454/1/4 455/1/4
f 455/1/4 454/1/4 456/1/4
f 457/4/4 458/4/4 459/4/4
f 459/4/4 458/4/4 460/4/4
f 461/1/4 462/1/4 463/1/4
f 463/1/4 462/1/4 464/1/4
f 469/1/5 466/1/5 465/1/5
f 470/1/5 466/1/5 469/1/5
f 471/1/5 468/1/5 467/1/5
f 472/1/5 468/1/5 471/1/5
f 475/3/5 474/3/5 473/3/5
f 476/3/5 474/3/5 475/3/5
f 479/3/5 478/3/5 477/3/5
f 480/3/5 478/3/5 479/3/5
f 483/1/5 482/1/5 481/1/5
f 484/1/5 482/1/5 483/1/5
f 487/2/5 486/2/5 485/2/5
f 488/2/5 486/2/5 487/2/5
f 490/1/5 488/1/5 487/1/5
f 491/1/5 488/1/5 490/1/5
f 493/1/5 490/1/5 489/1/5
f 494/1/5 490/1/5 493/1/5
f 495/1/5 492/1/5 491/1/5
f 496/1/5 492/1/5 495/1/5
f 497/1/5 490/1/5 494/1/5
f 498/1/5 490/1/5 497/1/5
f 499/1/5 495/1/5 491/1/5
f 500/1/5 495/1/5 499/1/5
f 501/5/5 498/5/5 497/5/5
f 502/1/5 499/1/5 498/1/5
f 502/5/5 498/5/5 501/5/5
f 503/5/5 500/5/5 499/5/5
f 503/1/5 499/1/5 502/1/5
f 504/5/5 500/5/5 503/5/5
f 505/4/5 502/4/5 501/4/5
f 506/1/5 503/1/5 502/1/5
f 506/4/5 502/4/5 505/4/5
f 507/4/5 504/4/5 503/4/5
f 507/1/5 503/1/5 506/1/5
f 508/4/5 504/4/5 507/4/5
f 509/5/5 506/5/5 505/5/5
f 510/1/5 507/1/5 506/1/5
f 510/5/5 506/5/5 509/5/5
f 511/5/5 508/5/5 507/5/5
f 511/1/5 507/1/5 510/1/5
f 512/5/5 508/5/5 511/5/5
f 513/1/5 511/1/5 510/1/5
f 514/1/5 511/1/5 513/1/5
f 519/1/5 516/1/5 515/1/5
f 520/1/5 516/1/5 519/1/5
f 521/1/5 518/1/5 517/1/5
f 522/1/5 518/1/5 521/1/5
f 527/1/5 524/1/5 523/1/5
f 528/1/5 526/1/5 525/1/5
f 529/1/5 527/1/5 523/1/5
f 529/1/5 528/1/5 527/1/5
f 530/1/5 526/1/5 528/1/5
f 530/1/5 528/1/5 529/1/5
f 533/3/5 532/3/5 531/3/5
f 534/3/5 532/3/5 533/3/5
f 537/3/5 536/3/5 535/3/5
f 538/3/5 536/3/5 537/3/5
f 549/1/5 540/1/5 539/1/5
f 550/5/5 541/5/5 540/5/5
f 550/1/5 540/1/5 549/1/5
f 551/2/5 542/2/5 541/2/5
f 551/5/5 541/5/5 550/5/5
f 552/5/5 543/5/5 542/5/5
f 552/2/5 542/2/5 551/2/5
f 553/1/5 544/1/5 543/1/5
f 553/5/5 543/5/5 552/5/5
f 554/1/5 544/1/5 553/1/5
f 555/1/5 544/1/5 554/1/5
f 556/5/5 545/5/5 544/5/5
f 556/1/5 544/1/5 555/1/5
f 557/2/5 546/2/5 545/2/5
f 557/5/5 545/5/5 556/5/5
f 558/5/5 547/5/5 546/5/5
f 558/2/5 546/2/5 557/2/5
f 559/1/5 548/1/5 547/1/5
f 559/5/5 547/5/5 558/5/5
f 560/1/5 548/1/5 559/1/5
f 561/5/5 550/5/5 549/5/5
f 562/2/5 551/2/5 550/2/5
f 562/5/5 550/5/5 561/5/5
f 563/4/5 552/4/5 551/4/5
f 563/2/5 551/2/5 562/2/5
f 564/2/5 553/2/5 552/2/5
f 564/4/5 552/4/5 563/4/5
f 565/5/5 554/5/5 553/5/5
f 565/2/5 553/2/5 564/2/5
f 566/1/5 555/1/5 554/1/5
f 566/5/5 554/5/5 565/5/5
f 567/5/5 556/5/5 555/5/5
f 567/1/5 555/1/5 566/1/5
f 568/2/5 557/2/5 556/2/5
f 568/5/5 556/5/5 567/5/5
f 569/4/5 558/4/5 557/4/5
f 569/2/5 557/2/5 568/2/5
f 570/2/5 559/2/5 558/2/5
f 570/4/5 558/4/5 569/4/5
f 571/5/5 560/5/5 559/5/5
f 571/2/5 559/2/5 570/2/5
f 572/5/5 560/5/5 571/5/5
f 573/1/5 562/1/5 561/1/5
f 574/5/5 563/5/5 562/5/5
f 574/1/5 562/1/5 573/1/5
f 575/5/5 563/5/5 574/5/5
f 576/5/5 565/5/5 564/5/5
f 577/1/5 568/1/5 567/1/5
f 577/5/5 565/5/5 576/5/5
f 577/1/5 566/1/5 565/1/5
f 577/1/5 567/1/5 566/1/5
f 578/1/5 568/1/5 577/1/5
f 579/1/5 568/1/5 578/1/5
f 580/1/5 568/1/5 579/1/5
f 581/1/5 568/1/5 580/1/5
f 582/5/5 569/5/5 568/5/5
f 582/1/5 568/1/5 581/1/5
f 583/5/5 569/5/5 582/5/5
f 584/5/5 571/5/5 570/5/5
f 585/1/5 572/1/5 571/1/5
f 585/5/5 571/5/5 584/5/5
f 586/1/5 572/1/5 585/1/5
f 591/1/5 588/1/5 587/1/5
f 592/1/5 588/1/5 591/1/5
f 593/1/5 590/1/5 589/1/5
f 594/1/5 590/1/5 593/1/5
f 595/1/5 591/1/5 587/1/5
f 596/1/5 591/1/5 595/1/5
f 597/4/5 593/4/5 592/4/5
f 598/4/5 593/4/5 597/4/5
f 599/1/5 590/1/5 594/1/5
f 600/1/5 590/1/5 599/1/5
f 605/1/5 602/1/5 601/1/5
f 606/1/5 604/1/5 603/1/5
f 607/1/5 605/1/5 601/1/5
f 608/1/5 605/1/5 607/1/5
f 609/1/5 604/1/5 606/1/5
f 610/1/5 604/1/5 609/1/5
f 611/1/6 612/1/6 615/1/6
f 615/1/6 612/1/6 616/1/6
f 613/1/6 614/1/6 617/1/6
f 617/1/6 614/1/6 618/1/6
f 619/3/6 620/3/6 621/3/6
f 621/3/6 620/3/6 622/3/6
f 623/3/6 624/3/6 625/3/6
f 625/3/6 624/3/6 626/3/6
f 627/1/6 628/1/6 635/1/6
f 629/1/6 630/1/6 636/1/6
f 636/1/6 630/1/6 637/1/6
f 637/1/6 630/1/6 638/1/6
f 631/1/6 632/1/6 639/1/6
f 639/1/6 632/1/6 640/1/6
f 640/1/6 632/1/6 641/1/6
f 633/1/6 634/1/6 642/1/6
f 627/1/6 635/1/6 643/1/6
f 635/1/6 636/1/6 643/1/6
f 636/1/6 637/1/6 643/1/6
f 643/1/6 637/1/6 644/1/6
f 638/1/6 630/1/6 645/1/6
f 645/1/6 630/1/6 646/1/6
f 631/1/6 639/1/6 647/1/6
f 647/1/6 639/1/6 648/1/6
f 640/1/6 641/1/6 649/1/6
f 641/1/6 642/1/6 649/1/6
f 642/1/6 634/1/6 650/1/6
f 649/1/6 642/1/6 650/1/6
f 651/2/6 652/2/6 653/2/6
f 653/2/6 652/2/6 654/2/6
f 653/1/6 654/1/6 658/1/6
f 658/1/6 654/1/6 659/1/6
f 655/1/6 656/1/6 663/1/6
f 663/1/6 656/1/6 664/1/6
f 661/1/6 662/1/6 665/1/6
f 665/1/6 662/1/6 666/1/6
f 658/1/6 659/1/6 667/1/6
f 657/1/6 658/1/6 667/1/6
f 659/1/6 660/1/6 667/1/6
f 667/1/6 660/1/6 668/1/6
f 657/1/6 667/1/6 669/1/6
f 669/1/6 667/1/6 670/1/6
f 668/1/6 660/1/6 671/1/6
f 671/1/6 660/1/6 672/1/6
f 669/5/6 670/5/6 673/5/6
f 673/5/6 670/5/6 674/5/6
f 671/5/6 672/5/6 675/5/6
f 675/5/6 672/5/6 676/5/6
f 673/1/6 674/1/6 677/1/6
f 677/1/6 674/1/6 678/1/6
f 675/1/6 676/1/6 679/1/6
f 679/1/6 676/1/6 680/1/6
f 681/3/6 682/3/6 683/3/6
f 683/3/6 682/3/6 684/3/6
f 685/1/6 686/1/6 689/1/6
f 689/1/6 686/1/6 690/1/6
f 687/1/6 688/1/6 691/1/6
f 691/1/6 688/1/6 692/1/6
f 693/1/6 694/1/6 695/1/6
f 695/1/6 694/1/6 696/1/6
f 697/3/6 698/3/6 699/3/6
f 699/3/6 698/3/6 700/3/6
f 701/1/6 702/1/6 711/1/6
f 702/5/6 703/5/6 712/5/6
f 711/1/6 702/1/6 712/1/6
f 703/2/6 704/2/6 713/2/6
f 712/5/6 703/5/6 713/5/6
f 704/5/6 705/5/6 714/5/6
f 713/2/6 704/2/6 714/2/6
f 705/1/6 706/1/6 715/1/6
f 714/5/6 705/5/6 715/5/6
f 715/1/6 706/1/6 716/1/6
f 716/1/6 706/1/6 717/1/6
f 706/5/6 707/5/6 718/5/6
f 717/1/6 706/1/6 718/1/6
f 707/2/6 708/2/6 719/2/6
f 718/5/6 707/5/6 719/5/6
f 708/5/6 709/5/6 720/5/6
f 719/2/6 708/2/6 720/2/6
f 709/1/6 710/1/6 721/1/6
f 720/5/6 709/5/6 721/5/6
f 721/1/6 710/1/6 722/1/6
f 711/5/6 712/5/6 723/5/6
f 712/2/6 713/2/6 724/2/6
f 723/5/6 712/5/6 724/5/6
f 713/4/6 714/4/6 725/4/6
f 724/2/6 713/2/6 725/2/6
f 714/2/6 715/2/6 726/2/6
f 725/4/6 714/4/6 726/4/6
f 715/5/6 716/5/6 727/5/6
f 726/2/6 715/2/6 727/2/6
f 716/1/6 717/1/6 728/1/6
f 727/5/6 716/5/6 728/5/6
f 717/5/6 718/5/6 729/5/6
f 728/1/6 717/1/6 729/1/6
f 718/2/6 719/2/6 730/2/6
f 729/5/6 718/5/6 730/5/6
f 719/4/6 720/4/6 731/4/6
f 730/2/6 719/2/6 731/2/6
f 720/2/6 721/2/6 732/2/6
f 731/4/6 720/4/6 732/4/6
f 721/5/6 722/5/6 733/5/6
f 732/2/6 721/2/6 733/2/6
f 733/5/6 722/5/6 734/5/6
f 723/1/6 724/1/6 735/1/6
f 724/5/6 725/5/6 736/5/6
f 735/1/6 724/1/6 736/1/6
f 725/2/6 726/2/6 737/2/6
f 736/5/6 725/5/6 737/5/6
f 726/5/6 727/5/6 738/5/6
f 737/2/6 726/2/6 738/2/6
f 729/1/6 730/1/6 739/1/6
f 738/5/6 727/5/6 739/5/6
f 727/1/6 728/1/6 739/1/6
f 728/1/6 729/1/6 739/1/6
f 730/5/6 731/5/6 740/5/6
f 739/1/6 730/1/6 740/1/6
f 731/2/6 732/2/6 741/2/6
f 740/5/6 731/5/6 741/5/6
f 732/5/6 733/5/6 742/5/6
f 741/2/6 732/2/6 742/2/6
f 733/1/6 734/1/6 743/1/6
f 742/5/6 733/5/6 743/5/6
f 743/1/6 734/1/6 744/1/6
f 745/1/6 746/1/6 749/1/6
f 749/1/6 746/1/6 750/1/6
f 747/1/6 748/1/6 751/1/6
f 751/1/6 748/1/6 752/1/6
f 745/1/6 749/1/6 753/1/6
f 753/1/6 749/1/6 754/1/6
f 752/1/6 748/1/6 755/1/6
f 755/1/6 748/1/6 756/1/6
f 757/1/6 758/1/6 761/1/6
f 761/1/6 758/1/6 762/1/6
f 759/1/6 760/1/6 763/1/6
f 763/1/6 760/1/6 764/1/6
f 765/5/6 766/5/6 767/5/6
f 767/5/6 766/5/6 768/5/6
f 767/2/6 768/2/6 769/2/6
f 769/2/6 768/2/6 770/2/6
f 769/4/6 770/4/6 771/4/6
f 771/4/6 770/4/6 772/4/6
