# MagicaVoxel @ Ephtracy

# group
g Boss-6

# material
mtllib Boss-6.mtl
usemtl palette

# normals
vn -1 0 0
vn 1 0 0
vn 0 0 1
vn 0 0 -1
vn 0 -1 0
vn 0 1 0

# texcoords
vt 0.0878906 0.5
vt 0.978516 0.5
vt 0.982422 0.5
vt 0.986328 0.5

# verts
v -1.5 0 12.5
v -1.5 0 10.5
v -1.5 0 9.5
v -1.5 0 8.5
v -1.5 0 -12.5
v -1.5 4 12.5
v -1.5 4 10.5
v -1.5 4 9.5
v -1.5 4 8.5
v -1.5 4 -12.5
v 2.5 0 12.5
v 2.5 0 10.5
v 2.5 0 9.5
v 2.5 0 8.5
v 2.5 0 -12.5
v 2.5 4 12.5
v 2.5 4 10.5
v 2.5 4 9.5
v 2.5 4 8.5
v 2.5 4 -12.5
v -1.5 0 12.5
v -1.5 4 12.5
v 2.5 0 12.5
v 2.5 4 12.5
v -1.5 0 -12.5
v -1.5 4 -12.5
v 2.5 0 -12.5
v 2.5 4 -12.5
v -1.5 0 12.5
v 2.5 0 12.5
v -1.5 0 10.5
v 2.5 0 10.5
v -1.5 0 9.5
v 2.5 0 9.5
v -1.5 0 8.5
v 2.5 0 8.5
v -1.5 0 -12.5
v 2.5 0 -12.5
v -1.5 4 12.5
v 2.5 4 12.5
v -1.5 4 10.5
v 2.5 4 10.5
v -1.5 4 9.5
v 2.5 4 9.5
v -1.5 4 8.5
v 2.5 4 8.5
v -1.5 4 -12.5
v 2.5 4 -12.5

# faces
f 6/4/1 2/4/1 1/4/1
f 7/3/1 3/3/1 2/3/1
f 7/4/1 2/4/1 6/4/1
f 8/2/1 4/2/1 3/2/1
f 8/3/1 3/3/1 7/3/1
f 9/1/1 5/1/1 4/1/1
f 9/2/1 4/2/1 8/2/1
f 10/1/1 5/1/1 9/1/1
f 11/4/2 12/4/2 16/4/2
f 12/3/2 13/3/2 17/3/2
f 16/4/2 12/4/2 17/4/2
f 13/2/2 14/2/2 18/2/2
f 17/3/2 13/3/2 18/3/2
f 14/1/2 15/1/2 19/1/2
f 18/2/2 14/2/2 19/2/2
f 19/1/2 15/1/2 20/1/2
f 23/4/3 22/4/3 21/4/3
f 24/4/3 22/4/3 23/4/3
f 25/1/4 26/1/4 27/1/4
f 27/1/4 26/1/4 28/1/4
f 31/4/5 30/4/5 29/4/5
f 32/4/5 30/4/5 31/4/5
f 33/3/5 32/3/5 31/3/5
f 34/3/5 32/3/5 33/3/5
f 35/2/5 34/2/5 33/2/5
f 36/2/5 34/2/5 35/2/5
f 37/1/5 36/1/5 35/1/5
f 38/1/5 36/1/5 37/1/5
f 39/4/6 40/4/6 41/4/6
f 41/4/6 40/4/6 42/4/6
f 41/3/6 42/3/6 43/3/6
f 43/3/6 42/3/6 44/3/6
f 43/2/6 44/2/6 45/2/6
f 45/2/6 44/2/6 46/2/6
f 45/1/6 46/1/6 47/1/6
f 47/1/6 46/1/6 48/1/6
