# MagicaVoxel @ Ephtracy

# group
g Boss-8

# material
mtllib Boss-8.mtl
usemtl palette

# normals
vn -1 0 0
vn 1 0 0
vn 0 0 1
vn 0 0 -1
vn 0 -1 0
vn 0 1 0

# texcoords
vt 0.0878906 0.5
vt 0.986328 0.5
vt 0.990234 0.5

# verts
v -6 9 1
v -6 9 -1
v -6 11 1
v -6 11 -1
v -5 6 2
v -5 6 -2
v -5 7 3
v -5 7 2
v -5 7 -2
v -5 7 -3
v -5 8 4
v -5 8 3
v -5 8 -3
v -5 8 -4
v -5 9 1
v -5 9 -1
v -5 11 1
v -5 11 -1
v -5 12 4
v -5 12 3
v -5 12 -3
v -5 12 -4
v -5 13 3
v -5 13 2
v -5 13 -2
v -5 13 -3
v -5 14 2
v -5 14 -2
v -4 1 3
v -4 1 -3
v -4 2 5
v -4 2 3
v -4 2 -3
v -4 2 -5
v -4 3 6
v -4 3 5
v -4 3 -5
v -4 3 -6
v -4 4 7
v -4 4 6
v -4 4 -6
v -4 4 -7
v -4 5 8
v -4 5 7
v -4 5 -7
v -4 5 -8
v -4 6 2
v -4 6 -2
v -4 7 9
v -4 7 8
v -4 7 3
v -4 7 2
v -4 7 -2
v -4 7 -3
v -4 7 -8
v -4 7 -9
v -4 8 4
v -4 8 3
v -4 8 -3
v -4 8 -4
v -4 12 4
v -4 12 3
v -4 12 -3
v -4 12 -4
v -4 13 9
v -4 13 8
v -4 13 3
v -4 13 2
v -4 13 -2
v -4 13 -3
v -4 13 -8
v -4 13 -9
v -4 14 2
v -4 14 -2
v -4 15 8
v -4 15 7
v -4 15 -7
v -4 15 -8
v -4 16 7
v -4 16 6
v -4 16 -6
v -4 16 -7
v -4 17 6
v -4 17 5
v -4 17 -5
v -4 17 -6
v -4 18 5
v -4 18 3
v -4 18 -3
v -4 18 -5
v -4 19 3
v -4 19 -3
v 6 1 3
v 6 1 -3
v 6 2 5
v 6 2 3
v 6 2 -3
v 6 2 -5
v 6 3 6
v 6 3 5
v 6 3 -5
v 6 3 -6
v 6 4 7
v 6 4 6
v 6 4 -6
v 6 4 -7
v 6 5 8
v 6 5 7
v 6 5 -7
v 6 5 -8
v 6 6 2
v 6 6 -2
v 6 7 9
v 6 7 8
v 6 7 3
v 6 7 2
v 6 7 -2
v 6 7 -3
v 6 7 -8
v 6 7 -9
v 6 8 4
v 6 8 3
v 6 8 -3
v 6 8 -4
v 6 12 4
v 6 12 3
v 6 12 -3
v 6 12 -4
v 6 13 9
v 6 13 8
v 6 13 3
v 6 13 2
v 6 13 -2
v 6 13 -3
v 6 13 -8
v 6 13 -9
v 6 14 2
v 6 14 -2
v 6 15 8
v 6 15 7
v 6 15 -7
v 6 15 -8
v 6 16 7
v 6 16 6
v 6 16 -6
v 6 16 -7
v 6 17 6
v 6 17 5
v 6 17 -5
v 6 17 -6
v 6 18 5
v 6 18 3
v 6 18 -3
v 6 18 -5
v 6 19 3
v 6 19 -3
v -4 7 9
v -4 13 9
v 6 7 9
v 6 13 9
v -4 5 8
v -4 7 8
v -4 13 8
v -4 15 8
v 6 5 8
v 6 7 8
v 6 13 8
v 6 15 8
v -4 4 7
v -4 5 7
v -4 15 7
v -4 16 7
v 6 4 7
v 6 5 7
v 6 15 7
v 6 16 7
v -4 3 6
v -4 4 6
v -4 16 6
v -4 17 6
v 6 3 6
v 6 4 6
v 6 16 6
v 6 17 6
v -4 2 5
v -4 3 5
v -4 17 5
v -4 18 5
v 6 2 5
v 6 3 5
v 6 17 5
v 6 18 5
v -5 8 4
v -5 12 4
v -4 8 4
v -4 12 4
v -5 7 3
v -5 8 3
v -5 12 3
v -5 13 3
v -4 1 3
v -4 2 3
v -4 7 3
v -4 8 3
v -4 12 3
v -4 13 3
v -4 18 3
v -4 19 3
v 6 1 3
v 6 2 3
v 6 18 3
v 6 19 3
v -5 6 2
v -5 7 2
v -5 13 2
v -5 14 2
v -4 6 2
v -4 7 2
v -4 13 2
v -4 14 2
v -6 9 1
v -6 11 1
v -5 9 1
v -5 11 1
v -6 9 -1
v -6 11 -1
v -5 9 -1
v -5 11 -1
v -5 6 -2
v -5 7 -2
v -5 13 -2
v -5 14 -2
v -4 6 -2
v -4 7 -2
v -4 13 -2
v -4 14 -2
v -5 7 -3
v -5 8 -3
v -5 12 -3
v -5 13 -3
v -4 1 -3
v -4 2 -3
v -4 7 -3
v -4 8 -3
v -4 12 -3
v -4 13 -3
v -4 18 -3
v -4 19 -3
v 6 1 -3
v 6 2 -3
v 6 18 -3
v 6 19 -3
v -5 8 -4
v -5 12 -4
v -4 8 -4
v -4 12 -4
v -4 2 -5
v -4 3 -5
v -4 17 -5
v -4 18 -5
v 6 2 -5
v 6 3 -5
v 6 17 -5
v 6 18 -5
v -4 3 -6
v -4 4 -6
v -4 16 -6
v -4 17 -6
v 6 3 -6
v 6 4 -6
v 6 16 -6
v 6 17 -6
v -4 4 -7
v -4 5 -7
v -4 15 -7
v -4 16 -7
v 6 4 -7
v 6 5 -7
v 6 15 -7
v 6 16 -7
v -4 5 -8
v -4 7 -8
v -4 13 -8
v -4 15 -8
v 6 5 -8
v 6 7 -8
v 6 13 -8
v 6 15 -8
v -4 7 -9
v -4 13 -9
v 6 7 -9
v 6 13 -9
v -4 1 3
v 6 1 3
v -4 1 -3
v 6 1 -3
v -4 2 5
v 6 2 5
v -4 2 3
v 6 2 3
v -4 2 -3
v 6 2 -3
v -4 2 -5
v 6 2 -5
v -4 3 6
v 6 3 6
v -4 3 5
v 6 3 5
v -4 3 -5
v 6 3 -5
v -4 3 -6
v 6 3 -6
v -4 4 7
v 6 4 7
v -4 4 6
v 6 4 6
v -4 4 -6
v 6 4 -6
v -4 4 -7
v 6 4 -7
v -4 5 8
v 6 5 8
v -4 5 7
v 6 5 7
v -4 5 -7
v 6 5 -7
v -4 5 -8
v 6 5 -8
v -5 6 2
v -4 6 2
v -5 6 -2
v -4 6 -2
v -4 7 9
v 6 7 9
v -4 7 8
v 6 7 8
v -5 7 3
v -4 7 3
v -5 7 2
v -4 7 2
v -5 7 -2
v -4 7 -2
v -5 7 -3
v -4 7 -3
v -4 7 -8
v 6 7 -8
v -4 7 -9
v 6 7 -9
v -5 8 4
v -4 8 4
v -5 8 3
v -4 8 3
v -5 8 -3
v -4 8 -3
v -5 8 -4
v -4 8 -4
v -6 9 1
v -5 9 1
v -6 9 -1
v -5 9 -1
v -6 11 1
v -5 11 1
v -6 11 -1
v -5 11 -1
v -5 12 4
v -4 12 4
v -5 12 3
v -4 12 3
v -5 12 -3
v -4 12 -3
v -5 12 -4
v -4 12 -4
v -4 13 9
v 6 13 9
v -4 13 8
v 6 13 8
v -5 13 3
v -4 13 3
v -5 13 2
v -4 13 2
v -5 13 -2
v -4 13 -2
v -5 13 -3
v -4 13 -3
v -4 13 -8
v 6 13 -8
v -4 13 -9
v 6 13 -9
v -5 14 2
v -4 14 2
v -5 14 -2
v -4 14 -2
v -4 15 8
v 6 15 8
v -4 15 7
v 6 15 7
v -4 15 -7
v 6 15 -7
v -4 15 -8
v 6 15 -8
v -4 16 7
v 6 16 7
v -4 16 6
v 6 16 6
v -4 16 -6
v 6 16 -6
v -4 16 -7
v 6 16 -7
v -4 17 6
v 6 17 6
v -4 17 5
v 6 17 5
v -4 17 -5
v 6 17 -5
v -4 17 -6
v 6 17 -6
v -4 18 5
v 6 18 5
v -4 18 3
v 6 18 3
v -4 18 -3
v 6 18 -3
v -4 18 -5
v 6 18 -5
v -4 19 3
v 6 19 3
v -4 19 -3
v 6 19 -3

# faces
f 3/2/1 2/2/1 1/2/1
f 4/2/1 2/2/1 3/2/1
f 8/1/1 6/1/1 5/1/1
f 9/1/1 6/1/1 8/1/1
f 12/1/1 8/1/1 7/1/1
f 12/1/1 10/1/1 9/1/1
f 12/1/1 9/1/1 8/1/1
f 13/1/1 10/1/1 12/1/1
f 15/1/1 12/1/1 11/1/1
f 15/1/1 14/1/1 13/1/1
f 15/1/1 13/1/1 12/1/1
f 16/1/1 14/1/1 15/1/1
f 17/1/1 15/1/1 11/1/1
f 18/1/1 14/1/1 16/1/1
f 19/1/1 17/1/1 11/1/1
f 19/1/1 18/1/1 17/1/1
f 20/1/1 18/1/1 19/1/1
f 21/1/1 14/1/1 18/1/1
f 21/1/1 18/1/1 20/1/1
f 22/1/1 14/1/1 21/1/1
f 23/1/1 21/1/1 20/1/1
f 24/1/1 21/1/1 23/1/1
f 25/1/1 21/1/1 24/1/1
f 26/1/1 21/1/1 25/1/1
f 27/1/1 25/1/1 24/1/1
f 28/1/1 25/1/1 27/1/1
f 32/3/1 30/3/1 29/3/1
f 33/3/1 30/3/1 32/3/1
f 36/3/1 32/3/1 31/3/1
f 36/3/1 34/3/1 33/3/1
f 36/3/1 33/3/1 32/3/1
f 37/3/1 34/3/1 36/3/1
f 40/3/1 36/3/1 35/3/1
f 40/3/1 38/3/1 37/3/1
f 40/3/1 37/3/1 36/3/1
f 41/3/1 38/3/1 40/3/1
f 44/3/1 40/3/1 39/3/1
f 44/3/1 42/3/1 41/3/1
f 44/3/1 41/3/1 40/3/1
f 45/3/1 42/3/1 44/3/1
f 47/3/1 44/3/1 43/3/1
f 47/3/1 46/3/1 45/3/1
f 47/3/1 45/3/1 44/3/1
f 48/3/1 46/3/1 47/3/1
f 50/3/1 47/3/1 43/3/1
f 51/3/1 47/3/1 50/3/1
f 52/3/1 47/3/1 51/3/1
f 53/3/1 46/3/1 48/3/1
f 54/3/1 46/3/1 53/3/1
f 55/3/1 46/3/1 54/3/1
f 57/3/1 50/3/1 49/3/1
f 57/3/1 51/3/1 50/3/1
f 58/3/1 51/3/1 57/3/1
f 59/3/1 56/3/1 55/3/1
f 59/3/1 55/3/1 54/3/1
f 60/3/1 56/3/1 59/3/1
f 61/3/1 57/3/1 49/3/1
f 64/3/1 56/3/1 60/3/1
f 65/3/1 62/3/1 61/3/1
f 65/3/1 61/3/1 49/3/1
f 66/3/1 62/3/1 65/3/1
f 67/3/1 62/3/1 66/3/1
f 70/3/1 64/3/1 63/3/1
f 71/3/1 56/3/1 64/3/1
f 71/3/1 64/3/1 70/3/1
f 72/3/1 56/3/1 71/3/1
f 73/3/1 68/3/1 67/3/1
f 73/3/1 67/3/1 66/3/1
f 74/3/1 70/3/1 69/3/1
f 74/3/1 71/3/1 70/3/1
f 75/3/1 73/3/1 66/3/1
f 75/3/1 74/3/1 73/3/1
f 76/3/1 74/3/1 75/3/1
f 77/3/1 71/3/1 74/3/1
f 77/3/1 74/3/1 76/3/1
f 78/3/1 71/3/1 77/3/1
f 79/3/1 77/3/1 76/3/1
f 80/3/1 77/3/1 79/3/1
f 81/3/1 77/3/1 80/3/1
f 82/3/1 77/3/1 81/3/1
f 83/3/1 81/3/1 80/3/1
f 84/3/1 81/3/1 83/3/1
f 85/3/1 81/3/1 84/3/1
f 86/3/1 81/3/1 85/3/1
f 87/3/1 85/3/1 84/3/1
f 88/3/1 85/3/1 87/3/1
f 89/3/1 85/3/1 88/3/1
f 90/3/1 85/3/1 89/3/1
f 91/3/1 89/3/1 88/3/1
f 92/3/1 89/3/1 91/3/1
f 93/3/2 94/3/2 96/3/2
f 96/3/2 94/3/2 97/3/2
f 95/3/2 96/3/2 100/3/2
f 97/3/2 98/3/2 100/3/2
f 96/3/2 97/3/2 100/3/2
f 100/3/2 98/3/2 101/3/2
f 99/3/2 100/3/2 104/3/2
f 101/3/2 102/3/2 104/3/2
f 100/3/2 101/3/2 104/3/2
f 104/3/2 102/3/2 105/3/2
f 103/3/2 104/3/2 108/3/2
f 105/3/2 106/3/2 108/3/2
f 104/3/2 105/3/2 108/3/2
f 108/3/2 106/3/2 109/3/2
f 107/3/2 108/3/2 111/3/2
f 109/3/2 110/3/2 111/3/2
f 108/3/2 109/3/2 111/3/2
f 111/3/2 110/3/2 112/3/2
f 107/3/2 111/3/2 114/3/2
f 114/3/2 111/3/2 115/3/2
f 111/1/2 112/1/2 116/1/2
f 115/3/2 111/3/2 116/3/2
f 112/3/2 110/3/2 117/3/2
f 116/1/2 112/1/2 117/1/2
f 117/3/2 110/3/2 118/3/2
f 118/3/2 110/3/2 119/3/2
f 114/3/2 115/3/2 121/3/2
f 113/3/2 114/3/2 121/3/2
f 115/1/2 116/1/2 122/1/2
f 121/3/2 115/3/2 122/3/2
f 116/1/2 117/1/2 122/1/2
f 117/1/2 118/1/2 122/1/2
f 119/3/2 120/3/2 123/3/2
f 122/1/2 118/1/2 123/1/2
f 118/3/2 119/3/2 123/3/2
f 123/3/2 120/3/2 124/3/2
f 113/3/2 121/3/2 125/3/2
f 121/1/2 122/1/2 125/1/2
f 123/1/2 124/1/2 125/1/2
f 122/1/2 123/1/2 125/1/2
f 125/1/2 124/1/2 126/1/2
f 126/1/2 124/1/2 127/1/2
f 124/3/2 120/3/2 128/3/2
f 127/1/2 124/1/2 128/1/2
f 113/3/2 125/3/2 129/3/2
f 125/3/2 126/3/2 129/3/2
f 129/3/2 126/3/2 130/3/2
f 126/1/2 127/1/2 131/1/2
f 130/3/2 126/3/2 131/3/2
f 131/1/2 127/1/2 132/1/2
f 132/1/2 127/1/2 133/1/2
f 127/3/2 128/3/2 134/3/2
f 133/1/2 127/1/2 134/1/2
f 128/3/2 120/3/2 135/3/2
f 134/3/2 128/3/2 135/3/2
f 135/3/2 120/3/2 136/3/2
f 132/1/2 133/1/2 137/1/2
f 130/3/2 131/3/2 137/3/2
f 131/3/2 132/3/2 137/3/2
f 133/3/2 134/3/2 138/3/2
f 137/1/2 133/1/2 138/1/2
f 134/3/2 135/3/2 138/3/2
f 130/3/2 137/3/2 139/3/2
f 137/3/2 138/3/2 139/3/2
f 139/3/2 138/3/2 140/3/2
f 138/3/2 135/3/2 141/3/2
f 140/3/2 138/3/2 141/3/2
f 141/3/2 135/3/2 142/3/2
f 140/3/2 141/3/2 143/3/2
f 143/3/2 141/3/2 144/3/2
f 144/3/2 141/3/2 145/3/2
f 145/3/2 141/3/2 146/3/2
f 144/3/2 145/3/2 147/3/2
f 147/3/2 145/3/2 148/3/2
f 148/3/2 145/3/2 149/3/2
f 149/3/2 145/3/2 150/3/2
f 148/3/2 149/3/2 151/3/2
f 151/3/2 149/3/2 152/3/2
f 152/3/2 149/3/2 153/3/2
f 153/3/2 149/3/2 154/3/2
f 152/3/2 153/3/2 155/3/2
f 155/3/2 153/3/2 156/3/2
f 159/3/3 158/3/3 157/3/3
f 160/3/3 158/3/3 159/3/3
f 165/3/3 162/3/3 161/3/3
f 166/3/3 162/3/3 165/3/3
f 167/3/3 164/3/3 163/3/3
f 168/3/3 164/3/3 167/3/3
f 173/3/3 170/3/3 169/3/3
f 174/3/3 170/3/3 173/3/3
f 175/3/3 172/3/3 171/3/3
f 176/3/3 172/3/3 175/3/3
f 181/3/3 178/3/3 177/3/3
f 182/3/3 178/3/3 181/3/3
f 183/3/3 180/3/3 179/3/3
f 184/3/3 180/3/3 183/3/3
f 189/3/3 186/3/3 185/3/3
f 190/3/3 186/3/3 189/3/3
f 191/3/3 188/3/3 187/3/3
f 192/3/3 188/3/3 191/3/3
f 195/1/3 194/1/3 193/1/3
f 196/1/3 194/1/3 195/1/3
f 203/1/3 198/1/3 197/1/3
f 204/1/3 198/1/3 203/1/3
f 205/1/3 200/1/3 199/1/3
f 206/1/3 200/1/3 205/1/3
f 209/3/3 202/3/3 201/3/3
f 210/3/3 202/3/3 209/3/3
f 211/3/3 208/3/3 207/3/3
f 212/3/3 208/3/3 211/3/3
f 217/1/3 214/1/3 213/1/3
f 218/1/3 214/1/3 217/1/3
f 219/1/3 216/1/3 215/1/3
f 220/1/3 216/1/3 219/1/3
f 223/2/3 222/2/3 221/2/3
f 224/2/3 222/2/3 223/2/3
f 225/2/4 226/2/4 227/2/4
f 227/2/4 226/2/4 228/2/4
f 229/1/4 230/1/4 233/1/4
f 233/1/4 230/1/4 234/1/4
f 231/1/4 232/1/4 235/1/4
f 235/1/4 232/1/4 236/1/4
f 237/1/4 238/1/4 243/1/4
f 243/1/4 238/1/4 244/1/4
f 239/1/4 240/1/4 245/1/4
f 245/1/4 240/1/4 246/1/4
f 241/3/4 242/3/4 249/3/4
f 249/3/4 242/3/4 250/3/4
f 247/3/4 248/3/4 251/3/4
f 251/3/4 248/3/4 252/3/4
f 253/1/4 254/1/4 255/1/4
f 255/1/4 254/1/4 256/1/4
f 257/3/4 258/3/4 261/3/4
f 261/3/4 258/3/4 262/3/4
f 259/3/4 260/3/4 263/3/4
f 263/3/4 260/3/4 264/3/4
f 265/3/4 266/3/4 269/3/4
f 269/3/4 266/3/4 270/3/4
f 267/3/4 268/3/4 271/3/4
f 271/3/4 268/3/4 272/3/4
f 273/3/4 274/3/4 277/3/4
f 277/3/4 274/3/4 278/3/4
f 275/3/4 276/3/4 279/3/4
f 279/3/4 276/3/4 280/3/4
f 281/3/4 282/3/4 285/3/4
f 285/3/4 282/3/4 286/3/4
f 283/3/4 284/3/4 287/3/4
f 287/3/4 284/3/4 288/3/4
f 289/3/4 290/3/4 291/3/4
f 291/3/4 290/3/4 292/3/4
f 295/3/5 294/3/5 293/3/5
f 296/3/5 294/3/5 295/3/5
f 299/3/5 298/3/5 297/3/5
f 300/3/5 298/3/5 299/3/5
f 303/3/5 302/3/5 301/3/5
f 304/3/5 302/3/5 303/3/5
f 307/3/5 306/3/5 305/3/5
f 308/3/5 306/3/5 307/3/5
f 311/3/5 310/3/5 309/3/5
f 312/3/5 310/3/5 311/3/5
f 315/3/5 314/3/5 313/3/5
f 316/3/5 314/3/5 315/3/5
f 319/3/5 318/3/5 317/3/5
f 320/3/5 318/3/5 319/3/5
f 323/3/5 322/3/5 321/3/5
f 324/3/5 322/3/5 323/3/5
f 327/3/5 326/3/5 325/3/5
f 328/3/5 326/3/5 327/3/5
f 331/1/5 330/1/5 329/1/5
f 332/1/5 330/1/5 331/1/5
f 335/3/5 334/3/5 333/3/5
f 336/3/5 334/3/5 335/3/5
f 339/1/5 338/1/5 337/1/5
f 340/1/5 338/1/5 339/1/5
f 343/1/5 342/1/5 341/1/5
f 344/1/5 342/1/5 343/1/5
f 347/3/5 346/3/5 345/3/5
f 348/3/5 346/3/5 347/3/5
f 351/1/5 350/1/5 349/1/5
f 352/1/5 350/1/5 351/1/5
f 355/1/5 354/1/5 353/1/5
f 356/1/5 354/1/5 355/1/5
f 359/2/5 358/2/5 357/2/5
f 360/2/5 358/2/5 359/2/5
f 361/2/6 362/2/6 363/2/6
f 363/2/6 362/2/6 364/2/6
f 365/1/6 366/1/6 367/1/6
f 367/1/6 366/1/6 368/1/6
f 369/1/6 370/1/6 371/1/6
f 371/1/6 370/1/6 372/1/6
f 373/3/6 374/3/6 375/3/6
f 375/3/6 374/3/6 376/3/6
f 377/1/6 378/1/6 379/1/6
f 379/1/6 378/1/6 380/1/6
f 381/1/6 382/1/6 383/1/6
f 383/1/6 382/1/6 384/1/6
f 385/3/6 386/3/6 387/3/6
f 387/3/6 386/3/6 388/3/6
f 389/1/6 390/1/6 391/1/6
f 391/1/6 390/1/6 392/1/6
f 393/3/6 394/3/6 395/3/6
f 395/3/6 394/3/6 396/3/6
f 397/3/6 398/3/6 399/3/6
f 399/3/6 398/3/6 400/3/6
f 401/3/6 402/3/6 403/3/6
f 403/3/6 402/3/6 404/3/6
f 405/3/6 406/3/6 407/3/6
f 407/3/6 406/3/6 408/3/6
f 409/3/6 410/3/6 411/3/6
f 411/3/6 410/3/6 412/3/6
f 413/3/6 414/3/6 415/3/6
f 415/3/6 414/3/6 416/3/6
f 417/3/6 418/3/6 419/3/6
f 419/3/6 418/3/6 420/3/6
f 421/3/6 422/3/6 423/3/6
f 423/3/6 422/3/6 424/3/6
f 425/3/6 426/3/6 427/3/6
f 427/3/6 426/3/6 428/3/6
