# MagicaVoxel @ Ephtracy

# group
g Eindecker_Red-0

# material
mtllib Eindecker_Red-0.mtl
usemtl palette

# normals
vn -1 0 0
vn 1 0 0
vn 0 0 1
vn 0 0 -1
vn 0 -1 0
vn 0 1 0

# texcoords
vt 0.0371094 0.5
vt 0.306641 0.5
vt 0.849609 0.5
vt 0.958984 0.5
vt 0.970703 0.5
vt 0.994141 0.5

# verts
v -16.5 6 9
v -16.5 6 4
v -16.5 7 9
v -16.5 7 4
v -15.5 5 10
v -15.5 5 9
v -15.5 5 4
v -15.5 5 3
v -15.5 6 10
v -15.5 6 9
v -15.5 6 4
v -15.5 6 3
v -14.5 5 11
v -14.5 5 10
v -14.5 5 3
v -14.5 5 2
v -14.5 6 11
v -14.5 6 10
v -14.5 6 3
v -14.5 6 2
v -5.5 6 -16
v -5.5 6 -18
v -5.5 7 -16
v -5.5 7 -18
v -4.5 3 12
v -4.5 3 7
v -4.5 3 1
v -4.5 5 16
v -4.5 5 12
v -4.5 5 11
v -4.5 5 9
v -4.5 5 4
v -4.5 5 2
v -4.5 6 11
v -4.5 6 9
v -4.5 6 7
v -4.5 6 4
v -4.5 6 2
v -4.5 6 -15
v -4.5 6 -16
v -4.5 6 -18
v -4.5 6 -19
v -4.5 7 9
v -4.5 7 7
v -4.5 7 4
v -4.5 7 -15
v -4.5 7 -16
v -4.5 7 -18
v -4.5 7 -19
v -4.5 9 16
v -4.5 9 7
v -4.5 9 1
v -3.5 3 13
v -3.5 3 12
v -3.5 4 1
v -3.5 4 -6
v -3.5 5 13
v -3.5 5 12
v -3.5 9 15
v -3.5 9 8
v -3.5 9 1
v -3.5 9 -6
v -3.5 10 15
v -3.5 10 8
v -2.5 4 16
v -2.5 4 13
v -2.5 5 16
v -2.5 5 13
v -2.5 5 -6
v -2.5 5 -14
v -2.5 6 17
v -2.5 6 16
v -2.5 8 -6
v -2.5 8 -14
v -2.5 9 17
v -2.5 9 16
v -2.5 9 8
v -2.5 9 7
v -2.5 10 8
v -2.5 10 7
v -1.5 9 16
v -1.5 9 15
v -1.5 10 16
v -1.5 10 15
v -1.5 10 14
v -1.5 10 8
v -1.5 11 14
v -1.5 11 8
v -0.5 6 -14
v -0.5 6 -15
v -0.5 7 19
v -0.5 7 18
v -0.5 7 -14
v -0.5 7 -15
v -0.5 7 -19
v -0.5 8 19
v -0.5 8 18
v -0.5 8 -14
v -0.5 8 -15
v -0.5 10 -18
v -0.5 10 -19
v -0.5 11 -17
v -0.5 11 -18
v -0.5 12 -14
v -0.5 12 -17
v 0.5 6 -14
v 0.5 6 -15
v 0.5 7 19
v 0.5 7 18
v 0.5 7 -14
v 0.5 7 -15
v 0.5 7 -19
v 0.5 8 19
v 0.5 8 18
v 0.5 8 -14
v 0.5 8 -15
v 0.5 10 -18
v 0.5 10 -19
v 0.5 11 -17
v 0.5 11 -18
v 0.5 12 -14
v 0.5 12 -17
v 1.5 9 16
v 1.5 9 15
v 1.5 10 16
v 1.5 10 15
v 1.5 10 14
v 1.5 10 8
v 1.5 11 14
v 1.5 11 8
v 2.5 4 16
v 2.5 4 13
v 2.5 5 16
v 2.5 5 13
v 2.5 5 -6
v 2.5 5 -14
v 2.5 6 17
v 2.5 6 16
v 2.5 8 -6
v 2.5 8 -14
v 2.5 9 17
v 2.5 9 16
v 2.5 9 8
v 2.5 9 7
v 2.5 10 8
v 2.5 10 7
v 3.5 3 13
v 3.5 3 12
v 3.5 4 1
v 3.5 4 -1
v 3.5 4 -4
v 3.5 4 -6
v 3.5 5 13
v 3.5 5 12
v 3.5 5 -0
v 3.5 5 -1
v 3.5 5 -2
v 3.5 5 -3
v 3.5 5 -4
v 3.5 5 -5
v 3.5 6 -1
v 3.5 6 -2
v 3.5 6 -3
v 3.5 6 -4
v 3.5 7 -1
v 3.5 7 -2
v 3.5 7 -3
v 3.5 7 -4
v 3.5 8 -0
v 3.5 8 -1
v 3.5 8 -2
v 3.5 8 -3
v 3.5 8 -4
v 3.5 8 -5
v 3.5 9 15
v 3.5 9 8
v 3.5 9 1
v 3.5 9 -1
v 3.5 9 -4
v 3.5 9 -6
v 3.5 10 15
v 3.5 10 8
v 4.5 3 12
v 4.5 3 7
v 4.5 3 1
v 4.5 5 16
v 4.5 5 12
v 4.5 5 11
v 4.5 5 9
v 4.5 5 7
v 4.5 5 4
v 4.5 5 2
v 4.5 6 11
v 4.5 6 9
v 4.5 6 4
v 4.5 6 2
v 4.5 6 -15
v 4.5 6 -16
v 4.5 6 -18
v 4.5 6 -19
v 4.5 7 9
v 4.5 7 7
v 4.5 7 4
v 4.5 7 -15
v 4.5 7 -16
v 4.5 7 -18
v 4.5 7 -19
v 4.5 9 16
v 4.5 9 7
v 4.5 9 1
v 5.5 6 -16
v 5.5 6 -18
v 5.5 7 -16
v 5.5 7 -18
v 14.5 5 11
v 14.5 5 10
v 14.5 5 3
v 14.5 5 2
v 14.5 6 11
v 14.5 6 10
v 14.5 6 3
v 14.5 6 2
v 15.5 5 10
v 15.5 5 9
v 15.5 5 4
v 15.5 5 3
v 15.5 6 10
v 15.5 6 9
v 15.5 6 4
v 15.5 6 3
v 16.5 6 9
v 16.5 6 4
v 16.5 7 9
v 16.5 7 4
v -0.5 7 19
v -0.5 8 19
v 0.5 7 19
v 0.5 8 19
v -2.5 6 17
v -2.5 9 17
v 2.5 6 17
v 2.5 9 17
v -4.5 5 16
v -4.5 9 16
v -2.5 4 16
v -2.5 5 16
v -2.5 6 16
v -2.5 9 16
v -1.5 9 16
v -1.5 10 16
v 1.5 9 16
v 1.5 10 16
v 2.5 4 16
v 2.5 5 16
v 2.5 6 16
v 2.5 9 16
v 4.5 5 16
v 4.5 9 16
v -3.5 9 15
v -3.5 10 15
v -1.5 9 15
v -1.5 10 15
v 1.5 9 15
v 1.5 10 15
v 3.5 9 15
v 3.5 10 15
v -1.5 10 14
v -1.5 11 14
v 1.5 10 14
v 1.5 11 14
v -3.5 3 13
v -3.5 5 13
v -2.5 4 13
v -2.5 5 13
v 2.5 4 13
v 2.5 5 13
v 3.5 3 13
v 3.5 5 13
v -4.5 3 12
v -4.5 5 12
v -3.5 3 12
v -3.5 5 12
v 3.5 3 12
v 3.5 5 12
v 4.5 3 12
v 4.5 5 12
v -14.5 5 11
v -14.5 6 11
v -4.5 5 11
v -4.5 6 11
v 4.5 5 11
v 4.5 6 11
v 14.5 5 11
v 14.5 6 11
v -15.5 5 10
v -15.5 6 10
v -14.5 5 10
v -14.5 6 10
v 14.5 5 10
v 14.5 6 10
v 15.5 5 10
v 15.5 6 10
v -16.5 6 9
v -16.5 7 9
v -15.5 6 9
v -4.5 6 9
v -4.5 7 9
v 4.5 6 9
v 4.5 7 9
v 15.5 6 9
v 16.5 6 9
v 16.5 7 9
v -15.5 5 4
v -15.5 6 4
v -4.5 5 4
v -4.5 6 4
v 4.5 5 4
v 4.5 6 4
v 15.5 5 4
v 15.5 6 4
v -0.5 8 -14
v -0.5 12 -14
v 0.5 8 -14
v 0.5 12 -14
v -4.5 6 -15
v -4.5 7 -15
v -0.5 6 -15
v -0.5 7 -15
v -0.5 8 -15
v 0.5 6 -15
v 0.5 7 -15
v 0.5 8 -15
v 4.5 6 -15
v 4.5 7 -15
v -5.5 6 -16
v -5.5 7 -16
v -4.5 6 -16
v -4.5 7 -16
v 4.5 6 -16
v 4.5 7 -16
v 5.5 6 -16
v 5.5 7 -16
v -0.5 7 18
v -0.5 8 18
v 0.5 7 18
v 0.5 8 18
v -15.5 5 9
v -15.5 6 9
v -4.5 5 9
v -4.5 6 9
v 4.5 5 9
v 4.5 6 9
v 15.5 5 9
v 15.5 6 9
v -3.5 9 8
v -3.5 10 8
v -2.5 9 8
v -2.5 10 8
v -1.5 10 8
v -1.5 11 8
v 1.5 10 8
v 1.5 11 8
v 2.5 9 8
v 2.5 10 8
v 3.5 9 8
v 3.5 10 8
v -2.5 9 7
v -2.5 10 7
v 2.5 9 7
v 2.5 10 7
v -16.5 6 4
v -16.5 7 4
v -15.5 6 4
v -4.5 6 4
v -4.5 7 4
v 4.5 6 4
v 4.5 7 4
v 15.5 6 4
v 16.5 6 4
v 16.5 7 4
v -15.5 5 3
v -15.5 6 3
v -14.5 5 3
v -14.5 6 3
v 14.5 5 3
v 14.5 6 3
v 15.5 5 3
v 15.5 6 3
v -14.5 5 2
v -14.5 6 2
v -4.5 5 2
v -4.5 6 2
v 4.5 5 2
v 4.5 6 2
v 14.5 5 2
v 14.5 6 2
v -4.5 3 1
v -4.5 9 1
v -3.5 4 1
v -3.5 9 1
v 2.5 4 1
v 3.5 4 1
v 3.5 9 1
v 4.5 3 1
v 4.5 9 1
v -3.5 4 -6
v -3.5 9 -6
v -2.5 5 -6
v -2.5 8 -6
v 2.5 4 -6
v 2.5 5 -6
v 2.5 8 -6
v 2.5 9 -6
v 3.5 4 -6
v 3.5 9 -6
v -2.5 5 -14
v -2.5 8 -14
v -0.5 6 -14
v -0.5 7 -14
v -0.5 8 -14
v 0.5 6 -14
v 0.5 7 -14
v 0.5 8 -14
v 2.5 5 -14
v 2.5 8 -14
v -0.5 11 -17
v -0.5 12 -17
v 0.5 11 -17
v 0.5 12 -17
v -5.5 6 -18
v -5.5 7 -18
v -4.5 6 -18
v -4.5 7 -18
v -0.5 10 -18
v -0.5 11 -18
v 0.5 10 -18
v 0.5 11 -18
v 4.5 6 -18
v 4.5 7 -18
v 5.5 6 -18
v 5.5 7 -18
v -4.5 6 -19
v -4.5 7 -19
v -0.5 6 -19
v -0.5 7 -19
v -0.5 10 -19
v 0.5 6 -19
v 0.5 7 -19
v 0.5 10 -19
v 4.5 6 -19
v 4.5 7 -19
v -3.5 3 13
v 3.5 3 13
v -4.5 3 12
v -3.5 3 12
v 3.5 3 12
v 4.5 3 12
v -4.5 3 7
v 4.5 3 7
v -4.5 3 1
v 4.5 3 1
v -2.5 4 16
v 2.5 4 16
v -2.5 4 13
v 2.5 4 13
v -3.5 4 1
v 2.5 4 1
v 3.5 4 1
v 2.5 4 -1
v 3.5 4 -1
v 2.5 4 -4
v 3.5 4 -4
v -3.5 4 -6
v 2.5 4 -6
v 3.5 4 -6
v -4.5 5 16
v -2.5 5 16
v 2.5 5 16
v 4.5 5 16
v -3.5 5 13
v -2.5 5 13
v 2.5 5 13
v 3.5 5 13
v -4.5 5 12
v -3.5 5 12
v 3.5 5 12
v 4.5 5 12
v -14.5 5 11
v -4.5 5 11
v 4.5 5 11
v 14.5 5 11
v -15.5 5 10
v -14.5 5 10
v 14.5 5 10
v 15.5 5 10
v -15.5 5 9
v -4.5 5 9
v 4.5 5 9
v 15.5 5 9
v -15.5 5 4
v -4.5 5 4
v 4.5 5 4
v 15.5 5 4
v -15.5 5 3
v -14.5 5 3
v 14.5 5 3
v 15.5 5 3
v -14.5 5 2
v -4.5 5 2
v 4.5 5 2
v 14.5 5 2
v -2.5 5 -6
v 2.5 5 -6
v -2.5 5 -14
v 2.5 5 -14
v -2.5 6 17
v 2.5 6 17
v -2.5 6 16
v 2.5 6 16
v -16.5 6 9
v -15.5 6 9
v -4.5 6 9
v 4.5 6 9
v 15.5 6 9
v 16.5 6 9
v -4.5 6 7
v -16.5 6 4
v -15.5 6 4
v -4.5 6 4
v 4.5 6 4
v 15.5 6 4
v 16.5 6 4
v -0.5 6 -14
v 0.5 6 -14
v -4.5 6 -15
v -0.5 6 -15
v 0.5 6 -15
v 4.5 6 -15
v -5.5 6 -16
v -4.5 6 -16
v 4.5 6 -16
v 5.5 6 -16
v -5.5 6 -18
v -4.5 6 -18
v 4.5 6 -18
v 5.5 6 -18
v -4.5 6 -19
v -0.5 6 -19
v 0.5 6 -19
v 4.5 6 -19
v -0.5 7 19
v 0.5 7 19
v -0.5 7 18
v 0.5 7 18
v -0.5 8 -14
v 0.5 8 -14
v -0.5 8 -15
v 0.5 8 -15
v -14.5 6 11
v -4.5 6 11
v 4.5 6 11
v 14.5 6 11
v -15.5 6 10
v -14.5 6 10
v 14.5 6 10
v 15.5 6 10
v -15.5 6 9
v -4.5 6 9
v 4.5 6 9
v 15.5 6 9
v -15.5 6 4
v -4.5 6 4
v 4.5 6 4
v 15.5 6 4
v -15.5 6 3
v -14.5 6 3
v 14.5 6 3
v 15.5 6 3
v -14.5 6 2
v -4.5 6 2
v 4.5 6 2
v 14.5 6 2
v -16.5 7 9
v -4.5 7 9
v 4.5 7 9
v 16.5 7 9
v -4.5 7 7
v 4.5 7 7
v -16.5 7 4
v -4.5 7 4
v 4.5 7 4
v 16.5 7 4
v -0.5 7 -14
v 0.5 7 -14
v -4.5 7 -15
v -0.5 7 -15
v 0.5 7 -15
v 4.5 7 -15
v -5.5 7 -16
v -4.5 7 -16
v 4.5 7 -16
v 5.5 7 -16
v -5.5 7 -18
v -4.5 7 -18
v 4.5 7 -18
v 5.5 7 -18
v -4.5 7 -19
v -0.5 7 -19
v 0.5 7 -19
v 4.5 7 -19
v -0.5 8 19
v 0.5 8 19
v -0.5 8 18
v 0.5 8 18
v -2.5 8 -6
v 2.5 8 -6
v -2.5 8 -14
v -0.5 8 -14
v 0.5 8 -14
v 2.5 8 -14
v -2.5 9 17
v 2.5 9 17
v -4.5 9 16
v -2.5 9 16
v -1.5 9 16
v 1.5 9 16
v 2.5 9 16
v 4.5 9 16
v -3.5 9 15
v -1.5 9 15
v 1.5 9 15
v 3.5 9 15
v -3.5 9 8
v -2.5 9 8
v 2.5 9 8
v 3.5 9 8
v -4.5 9 7
v -2.5 9 7
v 2.5 9 7
v 4.5 9 7
v -4.5 9 1
v -3.5 9 1
v 2.5 9 1
v 3.5 9 1
v 4.5 9 1
v 2.5 9 -1
v 3.5 9 -1
v 2.5 9 -4
v 3.5 9 -4
v -3.5 9 -6
v 2.5 9 -6
v 3.5 9 -6
v -1.5 10 16
v 1.5 10 16
v -3.5 10 15
v -1.5 10 15
v 1.5 10 15
v 3.5 10 15
v -1.5 10 14
v 1.5 10 14
v -3.5 10 8
v -2.5 10 8
v -1.5 10 8
v 1.5 10 8
v 2.5 10 8
v 3.5 10 8
v -2.5 10 7
v 2.5 10 7
v -0.5 10 -18
v 0.5 10 -18
v -0.5 10 -19
v 0.5 10 -19
v -1.5 11 14
v 1.5 11 14
v -1.5 11 8
v 1.5 11 8
v -0.5 11 -17
v 0.5 11 -17
v -0.5 11 -18
v 0.5 11 -18
v -0.5 12 -14
v 0.5 12 -14
v -0.5 12 -17
v 0.5 12 -17

# faces
f 3/3/1 2/3/1 1/3/1
f 4/3/1 2/3/1 3/3/1
f 9/3/1 6/3/1 5/3/1
f 10/3/1 6/3/1 9/3/1
f 11/3/1 8/3/1 7/3/1
f 12/3/1 8/3/1 11/3/1
f 17/3/1 14/3/1 13/3/1
f 18/3/1 14/3/1 17/3/1
f 19/3/1 16/3/1 15/3/1
f 20/3/1 16/3/1 19/3/1
f 23/4/1 22/4/1 21/4/1
f 24/4/1 22/4/1 23/4/1
f 29/5/1 26/5/1 25/5/1
f 30/5/1 26/5/1 29/5/1
f 31/5/1 26/5/1 30/5/1
f 32/3/1 27/3/1 26/3/1
f 33/3/1 27/3/1 32/3/1
f 34/5/1 29/5/1 28/5/1
f 34/5/1 30/5/1 29/5/1
f 35/5/1 26/5/1 31/5/1
f 36/3/1 32/3/1 26/3/1
f 36/5/1 26/5/1 35/5/1
f 37/3/1 32/3/1 36/3/1
f 38/3/1 27/3/1 33/3/1
f 43/5/1 35/5/1 34/5/1
f 45/3/1 38/3/1 37/3/1
f 46/4/1 40/4/1 39/4/1
f 47/4/1 40/4/1 46/4/1
f 48/4/1 42/4/1 41/4/1
f 49/4/1 42/4/1 48/4/1
f 50/5/1 34/5/1 28/5/1
f 50/5/1 44/5/1 43/5/1
f 50/5/1 43/5/1 34/5/1
f 51/3/1 45/3/1 44/3/1
f 51/5/1 44/5/1 50/5/1
f 52/3/1 27/3/1 38/3/1
f 52/3/1 45/3/1 51/3/1
f 52/3/1 38/3/1 45/3/1
f 57/5/1 54/5/1 53/5/1
f 58/5/1 54/5/1 57/5/1
f 61/3/1 56/3/1 55/3/1
f 62/3/1 56/3/1 61/3/1
f 63/5/1 60/5/1 59/5/1
f 64/5/1 60/5/1 63/5/1
f 67/5/1 66/5/1 65/5/1
f 68/5/1 66/5/1 67/5/1
f 73/3/1 70/3/1 69/3/1
f 74/3/1 70/3/1 73/3/1
f 75/5/1 72/5/1 71/5/1
f 76/5/1 72/5/1 75/5/1
f 79/5/1 78/5/1 77/5/1
f 80/5/1 78/5/1 79/5/1
f 83/5/1 82/5/1 81/5/1
f 84/5/1 82/5/1 83/5/1
f 87/6/1 86/6/1 85/6/1
f 88/6/1 86/6/1 87/6/1
f 93/3/1 90/3/1 89/3/1
f 94/3/1 90/3/1 93/3/1
f 96/2/1 92/2/1 91/2/1
f 97/2/1 92/2/1 96/2/1
f 99/4/1 95/4/1 94/4/1
f 100/4/1 99/4/1 98/4/1
f 100/4/1 95/4/1 99/4/1
f 101/4/1 95/4/1 100/4/1
f 102/4/1 100/4/1 98/4/1
f 103/4/1 100/4/1 102/4/1
f 104/4/1 102/4/1 98/4/1
f 105/4/1 102/4/1 104/4/1
f 106/3/2 107/3/2 110/3/2
f 110/3/2 107/3/2 111/3/2
f 108/2/2 109/2/2 113/2/2
f 113/2/2 109/2/2 114/2/2
f 111/4/2 112/4/2 116/4/2
f 115/4/2 116/4/2 117/4/2
f 116/4/2 112/4/2 117/4/2
f 117/4/2 112/4/2 118/4/2
f 115/4/2 117/4/2 119/4/2
f 119/4/2 117/4/2 120/4/2
f 115/4/2 119/4/2 121/4/2
f 121/4/2 119/4/2 122/4/2
f 123/5/2 124/5/2 125/5/2
f 125/5/2 124/5/2 126/5/2
f 127/6/2 128/6/2 129/6/2
f 129/6/2 128/6/2 130/6/2
f 131/5/2 132/5/2 133/5/2
f 133/5/2 132/5/2 134/5/2
f 135/3/2 136/3/2 139/3/2
f 139/3/2 136/3/2 140/3/2
f 137/5/2 138/5/2 141/5/2
f 141/5/2 138/5/2 142/5/2
f 143/5/2 144/5/2 145/5/2
f 145/5/2 144/5/2 146/5/2
f 147/5/2 148/5/2 153/5/2
f 153/5/2 148/5/2 154/5/2
f 149/4/2 150/4/2 155/4/2
f 150/6/2 151/6/2 156/6/2
f 155/4/2 150/4/2 156/4/2
f 156/6/2 151/6/2 157/6/2
f 157/6/2 151/6/2 158/6/2
f 151/4/2 152/4/2 159/4/2
f 158/6/2 151/6/2 159/6/2
f 159/4/2 152/4/2 160/4/2
f 155/6/2 156/6/2 161/6/2
f 156/4/2 157/4/2 161/4/2
f 157/6/2 158/6/2 162/6/2
f 161/4/2 157/4/2 162/4/2
f 158/4/2 159/4/2 163/4/2
f 162/6/2 158/6/2 163/6/2
f 159/6/2 160/6/2 164/6/2
f 163/4/2 159/4/2 164/4/2
f 155/6/2 161/6/2 165/6/2
f 162/6/2 163/6/2 165/6/2
f 163/6/2 164/6/2 165/6/2
f 161/6/2 162/6/2 165/6/2
f 165/6/2 164/6/2 166/6/2
f 166/6/2 164/6/2 167/6/2
f 164/6/2 160/6/2 168/6/2
f 167/6/2 164/6/2 168/6/2
f 149/4/2 155/4/2 169/4/2
f 155/6/2 165/6/2 169/6/2
f 165/4/2 166/4/2 170/4/2
f 169/6/2 165/6/2 170/6/2
f 166/6/2 167/6/2 171/6/2
f 170/4/2 166/4/2 171/4/2
f 167/4/2 168/4/2 172/4/2
f 171/6/2 167/6/2 172/6/2
f 168/6/2 160/6/2 173/6/2
f 172/4/2 168/4/2 173/4/2
f 160/4/2 152/4/2 174/4/2
f 173/6/2 160/6/2 174/6/2
f 169/4/2 170/4/2 177/4/2
f 149/4/2 169/4/2 177/4/2
f 172/6/2 173/6/2 178/6/2
f 177/4/2 170/4/2 178/4/2
f 171/6/2 172/6/2 178/6/2
f 170/6/2 171/6/2 178/6/2
f 173/4/2 174/4/2 179/4/2
f 178/6/2 173/6/2 179/6/2
f 174/4/2 152/4/2 180/4/2
f 179/4/2 174/4/2 180/4/2
f 175/5/2 176/5/2 181/5/2
f 181/5/2 176/5/2 182/5/2
f 183/5/2 184/5/2 187/5/2
f 187/5/2 184/5/2 188/5/2
f 188/5/2 184/5/2 189/5/2
f 184/3/2 185/3/2 190/3/2
f 189/5/2 184/5/2 190/5/2
f 190/3/2 185/3/2 191/3/2
f 191/3/2 185/3/2 192/3/2
f 186/5/2 187/5/2 193/5/2
f 187/5/2 188/5/2 193/5/2
f 190/3/2 191/3/2 194/3/2
f 189/3/2 190/3/2 194/3/2
f 194/3/2 191/3/2 195/3/2
f 192/3/2 185/3/2 196/3/2
f 193/5/2 194/5/2 201/5/2
f 195/3/2 196/3/2 203/3/2
f 197/4/2 198/4/2 204/4/2
f 204/4/2 198/4/2 205/4/2
f 199/4/2 200/4/2 206/4/2
f 206/4/2 200/4/2 207/4/2
f 186/5/2 193/5/2 208/5/2
f 201/5/2 202/5/2 208/5/2
f 193/5/2 201/5/2 208/5/2
f 202/3/2 203/3/2 209/3/2
f 208/5/2 202/5/2 209/5/2
f 196/3/2 185/3/2 210/3/2
f 209/3/2 203/3/2 210/3/2
f 203/3/2 196/3/2 210/3/2
f 211/4/2 212/4/2 213/4/2
f 213/4/2 212/4/2 214/4/2
f 215/3/2 216/3/2 219/3/2
f 219/3/2 216/3/2 220/3/2
f 217/3/2 218/3/2 221/3/2
f 221/3/2 218/3/2 222/3/2
f 223/3/2 224/3/2 227/3/2
f 227/3/2 224/3/2 228/3/2
f 225/3/2 226/3/2 229/3/2
f 229/3/2 226/3/2 230/3/2
f 231/3/2 232/3/2 233/3/2
f 233/3/2 232/3/2 234/3/2
f 237/2/3 236/2/3 235/2/3
f 238/2/3 236/2/3 237/2/3
f 241/5/3 240/5/3 239/5/3
f 242/5/3 240/5/3 241/5/3
f 246/5/3 244/5/3 243/5/3
f 247/5/3 244/5/3 246/5/3
f 248/5/3 244/5/3 247/5/3
f 251/5/3 250/5/3 249/5/3
f 252/5/3 250/5/3 251/5/3
f 253/5/3 246/5/3 245/5/3
f 253/5/3 247/5/3 246/5/3
f 254/5/3 247/5/3 253/5/3
f 255/5/3 247/5/3 254/5/3
f 257/5/3 256/5/3 255/5/3
f 257/5/3 255/5/3 254/5/3
f 258/5/3 256/5/3 257/5/3
f 261/5/3 260/5/3 259/5/3
f 262/5/3 260/5/3 261/5/3
f 265/5/3 264/5/3 263/5/3
f 266/5/3 264/5/3 265/5/3
f 269/6/3 268/6/3 267/6/3
f 270/6/3 268/6/3 269/6/3
f 273/5/3 272/5/3 271/5/3
f 274/5/3 272/5/3 273/5/3
f 275/5/3 273/5/3 271/5/3
f 277/5/3 275/5/3 271/5/3
f 277/5/3 276/5/3 275/5/3
f 278/5/3 276/5/3 277/5/3
f 281/5/3 280/5/3 279/5/3
f 282/5/3 280/5/3 281/5/3
f 285/5/3 284/5/3 283/5/3
f 286/5/3 284/5/3 285/5/3
f 289/3/3 288/3/3 287/3/3
f 290/3/3 288/3/3 289/3/3
f 293/3/3 292/3/3 291/3/3
f 294/3/3 292/3/3 293/3/3
f 297/3/3 296/3/3 295/3/3
f 298/3/3 296/3/3 297/3/3
f 301/3/3 300/3/3 299/3/3
f 302/3/3 300/3/3 301/3/3
f 305/3/3 304/3/3 303/3/3
f 306/3/3 304/3/3 305/3/3
f 307/3/3 304/3/3 306/3/3
f 310/3/3 309/3/3 308/3/3
f 311/3/3 309/3/3 310/3/3
f 312/3/3 309/3/3 311/3/3
f 315/3/3 314/3/3 313/3/3
f 316/3/3 314/3/3 315/3/3
f 319/3/3 318/3/3 317/3/3
f 320/3/3 318/3/3 319/3/3
f 323/4/3 322/4/3 321/4/3
f 324/4/3 322/4/3 323/4/3
f 327/4/3 326/4/3 325/4/3
f 328/4/3 326/4/3 327/4/3
f 331/4/3 329/4/3 328/4/3
f 332/4/3 329/4/3 331/4/3
f 333/4/3 331/4/3 330/4/3
f 334/4/3 331/4/3 333/4/3
f 337/4/3 336/4/3 335/4/3
f 338/4/3 336/4/3 337/4/3
f 341/4/3 340/4/3 339/4/3
f 342/4/3 340/4/3 341/4/3
f 343/2/4 344/2/4 345/2/4
f 345/2/4 344/2/4 346/2/4
f 347/3/4 348/3/4 349/3/4
f 349/3/4 348/3/4 350/3/4
f 351/3/4 352/3/4 353/3/4
f 353/3/4 352/3/4 354/3/4
f 355/5/4 356/5/4 357/5/4
f 357/5/4 356/5/4 358/5/4
f 359/6/4 360/6/4 361/6/4
f 361/6/4 360/6/4 362/6/4
f 363/5/4 364/5/4 365/5/4
f 365/5/4 364/5/4 366/5/4
f 367/5/4 368/5/4 369/5/4
f 369/5/4 368/5/4 370/5/4
f 371/3/4 372/3/4 373/3/4
f 373/3/4 372/3/4 374/3/4
f 374/3/4 372/3/4 375/3/4
f 376/3/4 377/3/4 378/3/4
f 378/3/4 377/3/4 379/3/4
f 379/3/4 377/3/4 380/3/4
f 381/3/4 382/3/4 383/3/4
f 383/3/4 382/3/4 384/3/4
f 385/3/4 386/3/4 387/3/4
f 387/3/4 386/3/4 388/3/4
f 389/3/4 390/3/4 391/3/4
f 391/3/4 390/3/4 392/3/4
f 393/3/4 394/3/4 395/3/4
f 395/3/4 394/3/4 396/3/4
f 397/3/4 398/3/4 399/3/4
f 399/3/4 398/3/4 400/3/4
f 397/3/4 399/3/4 401/3/4
f 397/3/4 401/3/4 402/3/4
f 397/3/4 402/3/4 404/3/4
f 402/3/4 403/3/4 404/3/4
f 404/3/4 403/3/4 405/3/4
f 406/3/4 407/3/4 408/3/4
f 408/3/4 407/3/4 409/3/4
f 406/3/4 408/3/4 410/3/4
f 410/3/4 408/3/4 411/3/4
f 409/3/4 407/3/4 412/3/4
f 412/3/4 407/3/4 413/3/4
f 410/4/4 411/4/4 414/4/4
f 411/4/4 412/4/4 414/4/4
f 412/4/4 413/4/4 414/4/4
f 414/4/4 413/4/4 415/4/4
f 416/3/4 417/3/4 418/3/4
f 418/3/4 417/3/4 419/3/4
f 419/3/4 417/3/4 420/3/4
f 416/3/4 418/3/4 421/3/4
f 419/3/4 420/3/4 422/3/4
f 422/3/4 420/3/4 423/3/4
f 416/3/4 421/3/4 424/3/4
f 421/3/4 422/3/4 424/3/4
f 422/3/4 423/3/4 424/3/4
f 424/3/4 423/3/4 425/3/4
f 426/4/4 427/4/4 428/4/4
f 428/4/4 427/4/4 429/4/4
f 430/4/4 431/4/4 432/4/4
f 432/4/4 431/4/4 433/4/4
f 434/4/4 435/4/4 436/4/4
f 436/4/4 435/4/4 437/4/4
f 438/4/4 439/4/4 440/4/4
f 440/4/4 439/4/4 441/4/4
f 442/4/4 443/4/4 444/4/4
f 444/4/4 443/4/4 445/4/4
f 444/3/4 445/3/4 447/3/4
f 445/4/4 446/4/4 448/4/4
f 447/3/4 445/3/4 448/3/4
f 448/4/4 446/4/4 449/4/4
f 447/4/4 448/4/4 450/4/4
f 450/4/4 448/4/4 451/4/4
f 455/5/5 453/5/5 452/5/5
f 456/5/5 453/5/5 455/5/5
f 458/5/5 455/5/5 454/5/5
f 458/5/5 457/5/5 456/5/5
f 458/5/5 456/5/5 455/5/5
f 459/5/5 457/5/5 458/5/5
f 460/3/5 459/3/5 458/3/5
f 461/3/5 459/3/5 460/3/5
f 464/5/5 463/5/5 462/5/5
f 465/5/5 463/5/5 464/5/5
f 469/3/5 467/3/5 466/3/5
f 469/4/5 468/4/5 467/4/5
f 470/4/5 468/4/5 469/4/5
f 471/3/5 469/3/5 466/3/5
f 471/6/5 470/6/5 469/6/5
f 472/6/5 470/6/5 471/6/5
f 473/3/5 471/3/5 466/3/5
f 474/4/5 472/4/5 471/4/5
f 474/3/5 471/3/5 473/3/5
f 475/4/5 472/4/5 474/4/5
f 480/5/5 477/5/5 476/5/5
f 481/5/5 477/5/5 480/5/5
f 482/5/5 479/5/5 478/5/5
f 483/5/5 479/5/5 482/5/5
f 484/5/5 480/5/5 476/5/5
f 485/5/5 480/5/5 484/5/5
f 486/5/5 479/5/5 483/5/5
f 487/5/5 479/5/5 486/5/5
f 493/3/5 489/3/5 488/3/5
f 494/3/5 491/3/5 490/3/5
f 496/3/5 493/3/5 492/3/5
f 497/3/5 489/3/5 493/3/5
f 497/3/5 493/3/5 496/3/5
f 498/3/5 495/3/5 494/3/5
f 498/3/5 494/3/5 490/3/5
f 499/3/5 495/3/5 498/3/5
f 504/3/5 501/3/5 500/3/5
f 505/3/5 501/3/5 504/3/5
f 506/3/5 503/3/5 502/3/5
f 507/3/5 503/3/5 506/3/5
f 508/3/5 501/3/5 505/3/5
f 509/3/5 501/3/5 508/3/5
f 510/3/5 506/3/5 502/3/5
f 511/3/5 506/3/5 510/3/5
f 514/3/5 513/3/5 512/3/5
f 515/3/5 513/3/5 514/3/5
f 518/5/5 517/5/5 516/5/5
f 519/5/5 517/5/5 518/5/5
f 526/3/5 522/3/5 521/3/5
f 526/3/5 521/3/5 520/3/5
f 527/3/5 526/3/5 520/3/5
f 528/3/5 526/3/5 527/3/5
f 529/3/5 526/3/5 528/3/5
f 530/3/5 525/3/5 524/3/5
f 530/3/5 524/3/5 523/3/5
f 531/3/5 525/3/5 530/3/5
f 532/3/5 525/3/5 531/3/5
f 536/3/5 534/3/5 533/3/5
f 537/3/5 534/3/5 536/3/5
f 540/4/5 536/4/5 535/4/5
f 541/4/5 538/4/5 537/4/5
f 543/4/5 540/4/5 539/4/5
f 544/4/5 536/4/5 540/4/5
f 544/4/5 540/4/5 543/4/5
f 545/4/5 542/4/5 541/4/5
f 545/4/5 541/4/5 537/4/5
f 546/4/5 542/4/5 545/4/5
f 547/4/5 536/4/5 544/4/5
f 548/3/5 537/3/5 536/3/5
f 548/4/5 536/4/5 547/4/5
f 549/4/5 545/4/5 537/4/5
f 549/3/5 537/3/5 548/3/5
f 550/4/5 545/4/5 549/4/5
f 553/2/5 552/2/5 551/2/5
f 554/2/5 552/2/5 553/2/5
f 557/4/5 556/4/5 555/4/5
f 558/4/5 556/4/5 557/4/5
f 559/3/6 560/3/6 564/3/6
f 561/3/6 562/3/6 565/3/6
f 563/3/6 564/3/6 567/3/6
f 564/3/6 560/3/6 568/3/6
f 567/3/6 564/3/6 568/3/6
f 565/3/6 566/3/6 569/3/6
f 561/3/6 565/3/6 569/3/6
f 569/3/6 566/3/6 570/3/6
f 571/3/6 572/3/6 575/3/6
f 575/3/6 572/3/6 576/3/6
f 573/3/6 574/3/6 577/3/6
f 577/3/6 574/3/6 578/3/6
f 576/3/6 572/3/6 579/3/6
f 579/3/6 572/3/6 580/3/6
f 573/3/6 577/3/6 581/3/6
f 581/3/6 577/3/6 582/3/6
f 583/3/6 584/3/6 587/3/6
f 585/3/6 586/3/6 588/3/6
f 583/3/6 587/3/6 589/3/6
f 589/3/6 587/3/6 590/3/6
f 588/3/6 586/3/6 591/3/6
f 591/3/6 586/3/6 592/3/6
f 593/3/6 594/3/6 596/3/6
f 596/3/6 594/3/6 597/3/6
f 595/4/6 596/4/6 600/4/6
f 597/4/6 598/4/6 601/4/6
f 599/4/6 600/4/6 603/4/6
f 600/4/6 596/4/6 604/4/6
f 603/4/6 600/4/6 604/4/6
f 601/4/6 602/4/6 605/4/6
f 597/4/6 601/4/6 605/4/6
f 605/4/6 602/4/6 606/4/6
f 604/4/6 596/4/6 607/4/6
f 607/4/6 596/4/6 608/4/6
f 597/4/6 605/4/6 609/4/6
f 609/4/6 605/4/6 610/4/6
f 611/2/6 612/2/6 613/2/6
f 613/2/6 612/2/6 614/2/6
f 615/3/6 616/3/6 617/3/6
f 617/3/6 616/3/6 618/3/6
f 618/3/6 616/3/6 619/3/6
f 619/3/6 616/3/6 620/3/6
f 621/5/6 622/5/6 624/5/6
f 624/5/6 622/5/6 625/5/6
f 625/5/6 622/5/6 626/5/6
f 626/5/6 622/5/6 627/5/6
f 623/5/6 624/5/6 629/5/6
f 624/5/6 625/5/6 629/5/6
f 629/5/6 625/5/6 630/5/6
f 627/5/6 628/5/6 631/5/6
f 626/5/6 627/5/6 631/5/6
f 631/5/6 628/5/6 632/5/6
f 623/5/6 629/5/6 633/5/6
f 632/5/6 628/5/6 636/5/6
f 633/5/6 634/5/6 637/5/6
f 623/5/6 633/5/6 637/5/6
f 637/5/6 634/5/6 638/5/6
f 635/5/6 636/5/6 639/5/6
f 636/5/6 628/5/6 640/5/6
f 639/5/6 636/5/6 640/5/6
f 637/3/6 638/3/6 641/3/6
f 638/3/6 639/3/6 641/3/6
f 639/3/6 640/3/6 641/3/6
f 641/3/6 640/3/6 642/3/6
f 642/3/6 640/3/6 643/3/6
f 643/3/6 640/3/6 644/3/6
f 644/3/6 640/3/6 645/3/6
f 642/3/6 643/3/6 646/3/6
f 643/4/6 644/4/6 646/4/6
f 646/4/6 644/4/6 647/4/6
f 642/3/6 646/3/6 648/3/6
f 646/6/6 647/6/6 648/6/6
f 648/6/6 647/6/6 649/6/6
f 642/3/6 648/3/6 650/3/6
f 648/4/6 649/4/6 651/4/6
f 650/3/6 648/3/6 651/3/6
f 651/4/6 649/4/6 652/4/6
f 653/5/6 654/5/6 656/5/6
f 656/5/6 654/5/6 657/5/6
f 655/5/6 656/5/6 659/5/6
f 657/5/6 658/5/6 659/5/6
f 656/5/6 657/5/6 659/5/6
f 659/5/6 658/5/6 660/5/6
f 655/5/6 659/5/6 661/5/6
f 661/5/6 659/5/6 662/5/6
f 662/5/6 659/5/6 663/5/6
f 660/5/6 658/5/6 664/5/6
f 664/5/6 658/5/6 665/5/6
f 665/5/6 658/5/6 666/5/6
f 662/5/6 663/5/6 667/5/6
f 664/5/6 665/5/6 667/5/6
f 663/5/6 664/5/6 667/5/6
f 667/5/6 665/5/6 668/5/6
f 669/4/6 670/4/6 671/4/6
f 671/4/6 670/4/6 672/4/6
f 673/6/6 674/6/6 675/6/6
f 675/6/6 674/6/6 676/6/6
f 677/4/6 678/4/6 679/4/6
f 679/4/6 678/4/6 680/4/6
f 681/4/6 682/4/6 683/4/6
f 683/4/6 682/4/6 684/4/6
