# MagicaVoxel @ Ephtracy

# group
g Eindecker_Yellow-0

# material
mtllib Eindecker_Yellow-0.mtl
usemtl palette

# normals
vn -1 0 0
vn 1 0 0
vn 0 0 1
vn 0 0 -1
vn 0 -1 0
vn 0 1 0

# texcoords
vt 0.0371094 0.5
vt 0.306641 0.5
vt 0.958984 0.5
vt 0.970703 0.5
vt 0.994141 0.5

# verts
v -16.5 6 9
v -16.5 6 4
v -16.5 7 9
v -16.5 7 4
v -15.5 5 10
v -15.5 5 9
v -15.5 5 4
v -15.5 5 3
v -15.5 6 10
v -15.5 6 9
v -15.5 6 4
v -15.5 6 3
v -14.5 5 11
v -14.5 5 10
v -14.5 5 3
v -14.5 5 2
v -14.5 6 11
v -14.5 6 10
v -14.5 6 3
v -14.5 6 2
v -5.5 6 -16
v -5.5 6 -18
v -5.5 7 -16
v -5.5 7 -18
v -4.5 3 12
v -4.5 3 7
v -4.5 3 1
v -4.5 5 16
v -4.5 5 12
v -4.5 5 11
v -4.5 5 9
v -4.5 5 4
v -4.5 5 2
v -4.5 6 11
v -4.5 6 9
v -4.5 6 7
v -4.5 6 4
v -4.5 6 2
v -4.5 6 -15
v -4.5 6 -16
v -4.5 6 -18
v -4.5 6 -19
v -4.5 7 9
v -4.5 7 7
v -4.5 7 4
v -4.5 7 -15
v -4.5 7 -16
v -4.5 7 -18
v -4.5 7 -19
v -4.5 9 16
v -4.5 9 7
v -4.5 9 1
v -3.5 3 13
v -3.5 3 12
v -3.5 4 1
v -3.5 4 -6
v -3.5 5 13
v -3.5 5 12
v -3.5 9 15
v -3.5 9 8
v -3.5 9 1
v -3.5 9 -6
v -3.5 10 15
v -3.5 10 8
v -2.5 4 16
v -2.5 4 13
v -2.5 5 16
v -2.5 5 13
v -2.5 5 -6
v -2.5 5 -14
v -2.5 6 17
v -2.5 6 16
v -2.5 8 -6
v -2.5 8 -14
v -2.5 9 17
v -2.5 9 16
v -2.5 9 8
v -2.5 9 7
v -2.5 10 8
v -2.5 10 7
v -1.5 9 16
v -1.5 9 15
v -1.5 10 16
v -1.5 10 15
v -1.5 10 14
v -1.5 10 8
v -1.5 11 14
v -1.5 11 8
v -0.5 6 -14
v -0.5 6 -15
v -0.5 7 19
v -0.5 7 18
v -0.5 7 -14
v -0.5 7 -15
v -0.5 7 -19
v -0.5 8 19
v -0.5 8 18
v -0.5 8 -14
v -0.5 8 -15
v -0.5 10 -18
v -0.5 10 -19
v -0.5 11 -17
v -0.5 11 -18
v -0.5 12 -14
v -0.5 12 -17
v 0.5 6 -14
v 0.5 6 -15
v 0.5 7 19
v 0.5 7 18
v 0.5 7 -14
v 0.5 7 -15
v 0.5 7 -19
v 0.5 8 19
v 0.5 8 18
v 0.5 8 -14
v 0.5 8 -15
v 0.5 10 -18
v 0.5 10 -19
v 0.5 11 -17
v 0.5 11 -18
v 0.5 12 -14
v 0.5 12 -17
v 1.5 9 16
v 1.5 9 15
v 1.5 10 16
v 1.5 10 15
v 1.5 10 14
v 1.5 10 8
v 1.5 11 14
v 1.5 11 8
v 2.5 4 16
v 2.5 4 13
v 2.5 5 16
v 2.5 5 13
v 2.5 5 -6
v 2.5 5 -14
v 2.5 6 17
v 2.5 6 16
v 2.5 8 -6
v 2.5 8 -14
v 2.5 9 17
v 2.5 9 16
v 2.5 9 8
v 2.5 9 7
v 2.5 10 8
v 2.5 10 7
v 3.5 3 13
v 3.5 3 12
v 3.5 4 1
v 3.5 4 -1
v 3.5 4 -4
v 3.5 4 -6
v 3.5 5 13
v 3.5 5 12
v 3.5 5 -0
v 3.5 5 -1
v 3.5 5 -2
v 3.5 5 -3
v 3.5 5 -4
v 3.5 5 -5
v 3.5 6 -1
v 3.5 6 -2
v 3.5 6 -3
v 3.5 6 -4
v 3.5 7 -1
v 3.5 7 -2
v 3.5 7 -3
v 3.5 7 -4
v 3.5 8 -0
v 3.5 8 -1
v 3.5 8 -2
v 3.5 8 -3
v 3.5 8 -4
v 3.5 8 -5
v 3.5 9 15
v 3.5 9 8
v 3.5 9 1
v 3.5 9 -1
v 3.5 9 -4
v 3.5 9 -6
v 3.5 10 15
v 3.5 10 8
v 4.5 3 12
v 4.5 3 7
v 4.5 3 1
v 4.5 5 16
v 4.5 5 12
v 4.5 5 11
v 4.5 5 9
v 4.5 5 4
v 4.5 5 2
v 4.5 6 11
v 4.5 6 9
v 4.5 6 7
v 4.5 6 4
v 4.5 6 2
v 4.5 6 -15
v 4.5 6 -16
v 4.5 6 -18
v 4.5 6 -19
v 4.5 7 9
v 4.5 7 7
v 4.5 7 4
v 4.5 7 -15
v 4.5 7 -16
v 4.5 7 -18
v 4.5 7 -19
v 4.5 9 16
v 4.5 9 7
v 4.5 9 1
v 5.5 6 -16
v 5.5 6 -18
v 5.5 7 -16
v 5.5 7 -18
v 14.5 5 11
v 14.5 5 10
v 14.5 5 3
v 14.5 5 2
v 14.5 6 11
v 14.5 6 10
v 14.5 6 3
v 14.5 6 2
v 15.5 5 10
v 15.5 5 9
v 15.5 5 4
v 15.5 5 3
v 15.5 6 10
v 15.5 6 9
v 15.5 6 4
v 15.5 6 3
v 16.5 6 9
v 16.5 6 4
v 16.5 7 9
v 16.5 7 4
v -0.5 7 19
v -0.5 8 19
v 0.5 7 19
v 0.5 8 19
v -2.5 6 17
v -2.5 9 17
v 2.5 6 17
v 2.5 9 17
v -4.5 5 16
v -4.5 9 16
v -2.5 4 16
v -2.5 5 16
v -2.5 6 16
v -2.5 9 16
v -1.5 9 16
v -1.5 10 16
v 1.5 9 16
v 1.5 10 16
v 2.5 4 16
v 2.5 5 16
v 2.5 6 16
v 2.5 9 16
v 4.5 5 16
v 4.5 9 16
v -3.5 9 15
v -3.5 10 15
v -1.5 9 15
v -1.5 10 15
v 1.5 9 15
v 1.5 10 15
v 3.5 9 15
v 3.5 10 15
v -1.5 10 14
v -1.5 11 14
v 1.5 10 14
v 1.5 11 14
v -3.5 3 13
v -3.5 5 13
v -2.5 4 13
v -2.5 5 13
v 2.5 4 13
v 2.5 5 13
v 3.5 3 13
v 3.5 5 13
v -4.5 3 12
v -4.5 5 12
v -3.5 3 12
v -3.5 5 12
v 3.5 3 12
v 3.5 5 12
v 4.5 3 12
v 4.5 5 12
v -14.5 5 11
v -14.5 6 11
v -4.5 5 11
v -4.5 6 11
v 4.5 5 11
v 4.5 6 11
v 14.5 5 11
v 14.5 6 11
v -15.5 5 10
v -15.5 6 10
v -14.5 5 10
v -14.5 6 10
v 14.5 5 10
v 14.5 6 10
v 15.5 5 10
v 15.5 6 10
v -16.5 6 9
v -16.5 7 9
v -15.5 6 9
v -4.5 6 9
v -4.5 7 9
v 4.5 6 9
v 4.5 7 9
v 15.5 6 9
v 16.5 6 9
v 16.5 7 9
v -15.5 5 4
v -15.5 6 4
v -4.5 5 4
v -4.5 6 4
v 4.5 5 4
v 4.5 6 4
v 15.5 5 4
v 15.5 6 4
v -0.5 8 -14
v -0.5 12 -14
v 0.5 8 -14
v 0.5 12 -14
v -4.5 6 -15
v -4.5 7 -15
v -0.5 6 -15
v -0.5 7 -15
v -0.5 8 -15
v 0.5 6 -15
v 0.5 7 -15
v 0.5 8 -15
v 4.5 6 -15
v 4.5 7 -15
v -5.5 6 -16
v -5.5 7 -16
v -4.5 6 -16
v -4.5 7 -16
v 4.5 6 -16
v 4.5 7 -16
v 5.5 6 -16
v 5.5 7 -16
v -0.5 7 18
v -0.5 8 18
v 0.5 7 18
v 0.5 8 18
v -15.5 5 9
v -15.5 6 9
v -4.5 5 9
v -4.5 6 9
v 4.5 5 9
v 4.5 6 9
v 15.5 5 9
v 15.5 6 9
v -3.5 9 8
v -3.5 10 8
v -2.5 9 8
v -2.5 10 8
v -1.5 10 8
v -1.5 11 8
v 1.5 10 8
v 1.5 11 8
v 2.5 9 8
v 2.5 10 8
v 3.5 9 8
v 3.5 10 8
v -2.5 9 7
v -2.5 10 7
v 2.5 9 7
v 2.5 10 7
v -16.5 6 4
v -16.5 7 4
v -15.5 6 4
v -4.5 6 4
v -4.5 7 4
v 4.5 6 4
v 4.5 7 4
v 15.5 6 4
v 16.5 6 4
v 16.5 7 4
v -15.5 5 3
v -15.5 6 3
v -14.5 5 3
v -14.5 6 3
v 14.5 5 3
v 14.5 6 3
v 15.5 5 3
v 15.5 6 3
v -14.5 5 2
v -14.5 6 2
v -4.5 5 2
v -4.5 6 2
v 4.5 5 2
v 4.5 6 2
v 14.5 5 2
v 14.5 6 2
v -4.5 3 1
v -4.5 9 1
v -3.5 4 1
v -3.5 9 1
v 2.5 4 1
v 3.5 4 1
v 3.5 9 1
v 4.5 3 1
v 4.5 9 1
v -3.5 4 -6
v -3.5 9 -6
v -2.5 5 -6
v -2.5 8 -6
v 2.5 4 -6
v 2.5 5 -6
v 2.5 8 -6
v 2.5 9 -6
v 3.5 4 -6
v 3.5 9 -6
v -2.5 5 -14
v -2.5 8 -14
v -0.5 6 -14
v -0.5 7 -14
v -0.5 8 -14
v 0.5 6 -14
v 0.5 7 -14
v 0.5 8 -14
v 2.5 5 -14
v 2.5 8 -14
v -0.5 11 -17
v -0.5 12 -17
v 0.5 11 -17
v 0.5 12 -17
v -5.5 6 -18
v -5.5 7 -18
v -4.5 6 -18
v -4.5 7 -18
v -0.5 10 -18
v -0.5 11 -18
v 0.5 10 -18
v 0.5 11 -18
v 4.5 6 -18
v 4.5 7 -18
v 5.5 6 -18
v 5.5 7 -18
v -4.5 6 -19
v -4.5 7 -19
v -0.5 6 -19
v -0.5 7 -19
v -0.5 10 -19
v 0.5 6 -19
v 0.5 7 -19
v 0.5 10 -19
v 4.5 6 -19
v 4.5 7 -19
v -3.5 3 13
v 3.5 3 13
v -4.5 3 12
v -3.5 3 12
v 3.5 3 12
v 4.5 3 12
v -4.5 3 7
v 4.5 3 7
v -4.5 3 1
v 4.5 3 1
v -2.5 4 16
v 2.5 4 16
v -2.5 4 13
v 2.5 4 13
v -3.5 4 1
v 2.5 4 1
v 3.5 4 1
v 2.5 4 -1
v 3.5 4 -1
v 2.5 4 -4
v 3.5 4 -4
v -3.5 4 -6
v 2.5 4 -6
v 3.5 4 -6
v -4.5 5 16
v -2.5 5 16
v 2.5 5 16
v 4.5 5 16
v -3.5 5 13
v -2.5 5 13
v 2.5 5 13
v 3.5 5 13
v -4.5 5 12
v -3.5 5 12
v 3.5 5 12
v 4.5 5 12
v -14.5 5 11
v -4.5 5 11
v 4.5 5 11
v 14.5 5 11
v -15.5 5 10
v -14.5 5 10
v 14.5 5 10
v 15.5 5 10
v -15.5 5 9
v -4.5 5 9
v 4.5 5 9
v 15.5 5 9
v -15.5 5 4
v -4.5 5 4
v 4.5 5 4
v 15.5 5 4
v -15.5 5 3
v -14.5 5 3
v 14.5 5 3
v 15.5 5 3
v -14.5 5 2
v -4.5 5 2
v 4.5 5 2
v 14.5 5 2
v -2.5 5 -6
v 2.5 5 -6
v -2.5 5 -14
v 2.5 5 -14
v -2.5 6 17
v 2.5 6 17
v -2.5 6 16
v 2.5 6 16
v -16.5 6 9
v -15.5 6 9
v -4.5 6 9
v 4.5 6 9
v 15.5 6 9
v 16.5 6 9
v -4.5 6 7
v 4.5 6 7
v -16.5 6 4
v -15.5 6 4
v -4.5 6 4
v 4.5 6 4
v 15.5 6 4
v 16.5 6 4
v -0.5 6 -14
v 0.5 6 -14
v -4.5 6 -15
v -0.5 6 -15
v 0.5 6 -15
v 4.5 6 -15
v -5.5 6 -16
v -4.5 6 -16
v 4.5 6 -16
v 5.5 6 -16
v -5.5 6 -18
v -4.5 6 -18
v 4.5 6 -18
v 5.5 6 -18
v -4.5 6 -19
v -0.5 6 -19
v 0.5 6 -19
v 4.5 6 -19
v -0.5 7 19
v 0.5 7 19
v -0.5 7 18
v 0.5 7 18
v -0.5 8 -14
v 0.5 8 -14
v -0.5 8 -15
v 0.5 8 -15
v -14.5 6 11
v -4.5 6 11
v 4.5 6 11
v 14.5 6 11
v -15.5 6 10
v -14.5 6 10
v 14.5 6 10
v 15.5 6 10
v -15.5 6 9
v -4.5 6 9
v 4.5 6 9
v 15.5 6 9
v -15.5 6 4
v -4.5 6 4
v 4.5 6 4
v 15.5 6 4
v -15.5 6 3
v -14.5 6 3
v 14.5 6 3
v 15.5 6 3
v -14.5 6 2
v -4.5 6 2
v 4.5 6 2
v 14.5 6 2
v -16.5 7 9
v -4.5 7 9
v 4.5 7 9
v 16.5 7 9
v -4.5 7 7
v 4.5 7 7
v -16.5 7 4
v -4.5 7 4
v 4.5 7 4
v 16.5 7 4
v -0.5 7 -14
v 0.5 7 -14
v -4.5 7 -15
v -0.5 7 -15
v 0.5 7 -15
v 4.5 7 -15
v -5.5 7 -16
v -4.5 7 -16
v 4.5 7 -16
v 5.5 7 -16
v -5.5 7 -18
v -4.5 7 -18
v 4.5 7 -18
v 5.5 7 -18
v -4.5 7 -19
v -0.5 7 -19
v 0.5 7 -19
v 4.5 7 -19
v -0.5 8 19
v 0.5 8 19
v -0.5 8 18
v 0.5 8 18
v -2.5 8 -6
v 2.5 8 -6
v -2.5 8 -14
v -0.5 8 -14
v 0.5 8 -14
v 2.5 8 -14
v -2.5 9 17
v 2.5 9 17
v -4.5 9 16
v -2.5 9 16
v -1.5 9 16
v 1.5 9 16
v 2.5 9 16
v 4.5 9 16
v -3.5 9 15
v -1.5 9 15
v 1.5 9 15
v 3.5 9 15
v -3.5 9 8
v -2.5 9 8
v 2.5 9 8
v 3.5 9 8
v -4.5 9 7
v -2.5 9 7
v 2.5 9 7
v 4.5 9 7
v -4.5 9 1
v -3.5 9 1
v 2.5 9 1
v 3.5 9 1
v 4.5 9 1
v 2.5 9 -1
v 3.5 9 -1
v 2.5 9 -4
v 3.5 9 -4
v -3.5 9 -6
v 2.5 9 -6
v 3.5 9 -6
v -1.5 10 16
v 1.5 10 16
v -3.5 10 15
v -1.5 10 15
v 1.5 10 15
v 3.5 10 15
v -1.5 10 14
v 1.5 10 14
v -3.5 10 8
v -2.5 10 8
v -1.5 10 8
v 1.5 10 8
v 2.5 10 8
v 3.5 10 8
v -2.5 10 7
v 2.5 10 7
v -0.5 10 -18
v 0.5 10 -18
v -0.5 10 -19
v 0.5 10 -19
v -1.5 11 14
v 1.5 11 14
v -1.5 11 8
v 1.5 11 8
v -0.5 11 -17
v 0.5 11 -17
v -0.5 11 -18
v 0.5 11 -18
v -0.5 12 -14
v 0.5 12 -14
v -0.5 12 -17
v 0.5 12 -17

# faces
f 3/1/1 2/1/1 1/1/1
f 4/1/1 2/1/1 3/1/1
f 9/1/1 6/1/1 5/1/1
f 10/1/1 6/1/1 9/1/1
f 11/1/1 8/1/1 7/1/1
f 12/1/1 8/1/1 11/1/1
f 17/1/1 14/1/1 13/1/1
f 18/1/1 14/1/1 17/1/1
f 19/1/1 16/1/1 15/1/1
f 20/1/1 16/1/1 19/1/1
f 23/3/1 22/3/1 21/3/1
f 24/3/1 22/3/1 23/3/1
f 29/4/1 26/4/1 25/4/1
f 30/4/1 26/4/1 29/4/1
f 31/4/1 26/4/1 30/4/1
f 32/1/1 27/1/1 26/1/1
f 33/1/1 27/1/1 32/1/1
f 34/4/1 29/4/1 28/4/1
f 34/4/1 30/4/1 29/4/1
f 35/4/1 26/4/1 31/4/1
f 36/1/1 32/1/1 26/1/1
f 36/4/1 26/4/1 35/4/1
f 37/1/1 32/1/1 36/1/1
f 38/1/1 27/1/1 33/1/1
f 43/4/1 35/4/1 34/4/1
f 45/1/1 38/1/1 37/1/1
f 46/3/1 40/3/1 39/3/1
f 47/3/1 40/3/1 46/3/1
f 48/3/1 42/3/1 41/3/1
f 49/3/1 42/3/1 48/3/1
f 50/4/1 34/4/1 28/4/1
f 50/4/1 44/4/1 43/4/1
f 50/4/1 43/4/1 34/4/1
f 51/1/1 45/1/1 44/1/1
f 51/4/1 44/4/1 50/4/1
f 52/1/1 27/1/1 38/1/1
f 52/1/1 45/1/1 51/1/1
f 52/1/1 38/1/1 45/1/1
f 57/4/1 54/4/1 53/4/1
f 58/4/1 54/4/1 57/4/1
f 61/1/1 56/1/1 55/1/1
f 62/1/1 56/1/1 61/1/1
f 63/4/1 60/4/1 59/4/1
f 64/4/1 60/4/1 63/4/1
f 67/4/1 66/4/1 65/4/1
f 68/4/1 66/4/1 67/4/1
f 73/1/1 70/1/1 69/1/1
f 74/1/1 70/1/1 73/1/1
f 75/4/1 72/4/1 71/4/1
f 76/4/1 72/4/1 75/4/1
f 79/4/1 78/4/1 77/4/1
f 80/4/1 78/4/1 79/4/1
f 83/4/1 82/4/1 81/4/1
f 84/4/1 82/4/1 83/4/1
f 87/5/1 86/5/1 85/5/1
f 88/5/1 86/5/1 87/5/1
f 93/1/1 90/1/1 89/1/1
f 94/1/1 90/1/1 93/1/1
f 96/2/1 92/2/1 91/2/1
f 97/2/1 92/2/1 96/2/1
f 99/3/1 95/3/1 94/3/1
f 100/3/1 99/3/1 98/3/1
f 100/3/1 95/3/1 99/3/1
f 101/3/1 95/3/1 100/3/1
f 102/3/1 100/3/1 98/3/1
f 103/3/1 100/3/1 102/3/1
f 104/3/1 102/3/1 98/3/1
f 105/3/1 102/3/1 104/3/1
f 106/1/2 107/1/2 110/1/2
f 110/1/2 107/1/2 111/1/2
f 108/2/2 109/2/2 113/2/2
f 113/2/2 109/2/2 114/2/2
f 111/3/2 112/3/2 116/3/2
f 115/3/2 116/3/2 117/3/2
f 116/3/2 112/3/2 117/3/2
f 117/3/2 112/3/2 118/3/2
f 115/3/2 117/3/2 119/3/2
f 119/3/2 117/3/2 120/3/2
f 115/3/2 119/3/2 121/3/2
f 121/3/2 119/3/2 122/3/2
f 123/4/2 124/4/2 125/4/2
f 125/4/2 124/4/2 126/4/2
f 127/5/2 128/5/2 129/5/2
f 129/5/2 128/5/2 130/5/2
f 131/4/2 132/4/2 133/4/2
f 133/4/2 132/4/2 134/4/2
f 135/1/2 136/1/2 139/1/2
f 139/1/2 136/1/2 140/1/2
f 137/4/2 138/4/2 141/4/2
f 141/4/2 138/4/2 142/4/2
f 143/4/2 144/4/2 145/4/2
f 145/4/2 144/4/2 146/4/2
f 147/4/2 148/4/2 153/4/2
f 153/4/2 148/4/2 154/4/2
f 149/3/2 150/3/2 155/3/2
f 150/5/2 151/5/2 156/5/2
f 155/3/2 150/3/2 156/3/2
f 156/5/2 151/5/2 157/5/2
f 157/5/2 151/5/2 158/5/2
f 151/3/2 152/3/2 159/3/2
f 158/5/2 151/5/2 159/5/2
f 159/3/2 152/3/2 160/3/2
f 155/5/2 156/5/2 161/5/2
f 156/3/2 157/3/2 161/3/2
f 157/5/2 158/5/2 162/5/2
f 161/3/2 157/3/2 162/3/2
f 158/3/2 159/3/2 163/3/2
f 162/5/2 158/5/2 163/5/2
f 159/5/2 160/5/2 164/5/2
f 163/3/2 159/3/2 164/3/2
f 155/5/2 161/5/2 165/5/2
f 162/5/2 163/5/2 165/5/2
f 163/5/2 164/5/2 165/5/2
f 161/5/2 162/5/2 165/5/2
f 165/5/2 164/5/2 166/5/2
f 166/5/2 164/5/2 167/5/2
f 164/5/2 160/5/2 168/5/2
f 167/5/2 164/5/2 168/5/2
f 149/3/2 155/3/2 169/3/2
f 155/5/2 165/5/2 169/5/2
f 165/3/2 166/3/2 170/3/2
f 169/5/2 165/5/2 170/5/2
f 166/5/2 167/5/2 171/5/2
f 170/3/2 166/3/2 171/3/2
f 167/3/2 168/3/2 172/3/2
f 171/5/2 167/5/2 172/5/2
f 168/5/2 160/5/2 173/5/2
f 172/3/2 168/3/2 173/3/2
f 160/3/2 152/3/2 174/3/2
f 173/5/2 160/5/2 174/5/2
f 169/3/2 170/3/2 177/3/2
f 149/3/2 169/3/2 177/3/2
f 172/5/2 173/5/2 178/5/2
f 177/3/2 170/3/2 178/3/2
f 171/5/2 172/5/2 178/5/2
f 170/5/2 171/5/2 178/5/2
f 173/3/2 174/3/2 179/3/2
f 178/5/2 173/5/2 179/5/2
f 174/3/2 152/3/2 180/3/2
f 179/3/2 174/3/2 180/3/2
f 175/4/2 176/4/2 181/4/2
f 181/4/2 176/4/2 182/4/2
f 183/4/2 184/4/2 187/4/2
f 187/4/2 184/4/2 188/4/2
f 188/4/2 184/4/2 189/4/2
f 184/1/2 185/1/2 190/1/2
f 190/1/2 185/1/2 191/1/2
f 186/4/2 187/4/2 192/4/2
f 187/4/2 188/4/2 192/4/2
f 189/4/2 184/4/2 193/4/2
f 184/1/2 190/1/2 194/1/2
f 193/4/2 184/4/2 194/4/2
f 194/1/2 190/1/2 195/1/2
f 191/1/2 185/1/2 196/1/2
f 192/4/2 193/4/2 201/4/2
f 195/1/2 196/1/2 203/1/2
f 197/3/2 198/3/2 204/3/2
f 204/3/2 198/3/2 205/3/2
f 199/3/2 200/3/2 206/3/2
f 206/3/2 200/3/2 207/3/2
f 186/4/2 192/4/2 208/4/2
f 201/4/2 202/4/2 208/4/2
f 192/4/2 201/4/2 208/4/2
f 202/1/2 203/1/2 209/1/2
f 208/4/2 202/4/2 209/4/2
f 196/1/2 185/1/2 210/1/2
f 209/1/2 203/1/2 210/1/2
f 203/1/2 196/1/2 210/1/2
f 211/3/2 212/3/2 213/3/2
f 213/3/2 212/3/2 214/3/2
f 215/1/2 216/1/2 219/1/2
f 219/1/2 216/1/2 220/1/2
f 217/1/2 218/1/2 221/1/2
f 221/1/2 218/1/2 222/1/2
f 223/1/2 224/1/2 227/1/2
f 227/1/2 224/1/2 228/1/2
f 225/1/2 226/1/2 229/1/2
f 229/1/2 226/1/2 230/1/2
f 231/1/2 232/1/2 233/1/2
f 233/1/2 232/1/2 234/1/2
f 237/2/3 236/2/3 235/2/3
f 238/2/3 236/2/3 237/2/3
f 241/4/3 240/4/3 239/4/3
f 242/4/3 240/4/3 241/4/3
f 246/4/3 244/4/3 243/4/3
f 247/4/3 244/4/3 246/4/3
f 248/4/3 244/4/3 247/4/3
f 251/4/3 250/4/3 249/4/3
f 252/4/3 250/4/3 251/4/3
f 253/4/3 246/4/3 245/4/3
f 253/4/3 247/4/3 246/4/3
f 254/4/3 247/4/3 253/4/3
f 255/4/3 247/4/3 254/4/3
f 257/4/3 256/4/3 255/4/3
f 257/4/3 255/4/3 254/4/3
f 258/4/3 256/4/3 257/4/3
f 261/4/3 260/4/3 259/4/3
f 262/4/3 260/4/3 261/4/3
f 265/4/3 264/4/3 263/4/3
f 266/4/3 264/4/3 265/4/3
f 269/5/3 268/5/3 267/5/3
f 270/5/3 268/5/3 269/5/3
f 273/4/3 272/4/3 271/4/3
f 274/4/3 272/4/3 273/4/3
f 275/4/3 273/4/3 271/4/3
f 277/4/3 275/4/3 271/4/3
f 277/4/3 276/4/3 275/4/3
f 278/4/3 276/4/3 277/4/3
f 281/4/3 280/4/3 279/4/3
f 282/4/3 280/4/3 281/4/3
f 285/4/3 284/4/3 283/4/3
f 286/4/3 284/4/3 285/4/3
f 289/1/3 288/1/3 287/1/3
f 290/1/3 288/1/3 289/1/3
f 293/1/3 292/1/3 291/1/3
f 294/1/3 292/1/3 293/1/3
f 297/1/3 296/1/3 295/1/3
f 298/1/3 296/1/3 297/1/3
f 301/1/3 300/1/3 299/1/3
f 302/1/3 300/1/3 301/1/3
f 305/1/3 304/1/3 303/1/3
f 306/1/3 304/1/3 305/1/3
f 307/1/3 304/1/3 306/1/3
f 310/1/3 309/1/3 308/1/3
f 311/1/3 309/1/3 310/1/3
f 312/1/3 309/1/3 311/1/3
f 315/1/3 314/1/3 313/1/3
f 316/1/3 314/1/3 315/1/3
f 319/1/3 318/1/3 317/1/3
f 320/1/3 318/1/3 319/1/3
f 323/3/3 322/3/3 321/3/3
f 324/3/3 322/3/3 323/3/3
f 327/3/3 326/3/3 325/3/3
f 328/3/3 326/3/3 327/3/3
f 331/3/3 329/3/3 328/3/3
f 332/3/3 329/3/3 331/3/3
f 333/3/3 331/3/3 330/3/3
f 334/3/3 331/3/3 333/3/3
f 337/3/3 336/3/3 335/3/3
f 338/3/3 336/3/3 337/3/3
f 341/3/3 340/3/3 339/3/3
f 342/3/3 340/3/3 341/3/3
f 343/2/4 344/2/4 345/2/4
f 345/2/4 344/2/4 346/2/4
f 347/1/4 348/1/4 349/1/4
f 349/1/4 348/1/4 350/1/4
f 351/1/4 352/1/4 353/1/4
f 353/1/4 352/1/4 354/1/4
f 355/4/4 356/4/4 357/4/4
f 357/4/4 356/4/4 358/4/4
f 359/5/4 360/5/4 361/5/4
f 361/5/4 360/5/4 362/5/4
f 363/4/4 364/4/4 365/4/4
f 365/4/4 364/4/4 366/4/4
f 367/4/4 368/4/4 369/4/4
f 369/4/4 368/4/4 370/4/4
f 371/1/4 372/1/4 373/1/4
f 373/1/4 372/1/4 374/1/4
f 374/1/4 372/1/4 375/1/4
f 376/1/4 377/1/4 378/1/4
f 378/1/4 377/1/4 379/1/4
f 379/1/4 377/1/4 380/1/4
f 381/1/4 382/1/4 383/1/4
f 383/1/4 382/1/4 384/1/4
f 385/1/4 386/1/4 387/1/4
f 387/1/4 386/1/4 388/1/4
f 389/1/4 390/1/4 391/1/4
f 391/1/4 390/1/4 392/1/4
f 393/1/4 394/1/4 395/1/4
f 395/1/4 394/1/4 396/1/4
f 397/1/4 398/1/4 399/1/4
f 399/1/4 398/1/4 400/1/4
f 397/1/4 399/1/4 401/1/4
f 397/1/4 401/1/4 402/1/4
f 397/1/4 402/1/4 404/1/4
f 402/1/4 403/1/4 404/1/4
f 404/1/4 403/1/4 405/1/4
f 406/1/4 407/1/4 408/1/4
f 408/1/4 407/1/4 409/1/4
f 406/1/4 408/1/4 410/1/4
f 410/1/4 408/1/4 411/1/4
f 409/1/4 407/1/4 412/1/4
f 412/1/4 407/1/4 413/1/4
f 410/3/4 411/3/4 414/3/4
f 411/3/4 412/3/4 414/3/4
f 412/3/4 413/3/4 414/3/4
f 414/3/4 413/3/4 415/3/4
f 416/1/4 417/1/4 418/1/4
f 418/1/4 417/1/4 419/1/4
f 419/1/4 417/1/4 420/1/4
f 416/1/4 418/1/4 421/1/4
f 419/1/4 420/1/4 422/1/4
f 422/1/4 420/1/4 423/1/4
f 416/1/4 421/1/4 424/1/4
f 421/1/4 422/1/4 424/1/4
f 422/1/4 423/1/4 424/1/4
f 424/1/4 423/1/4 425/1/4
f 426/3/4 427/3/4 428/3/4
f 428/3/4 427/3/4 429/3/4
f 430/3/4 431/3/4 432/3/4
f 432/3/4 431/3/4 433/3/4
f 434/3/4 435/3/4 436/3/4
f 436/3/4 435/3/4 437/3/4
f 438/3/4 439/3/4 440/3/4
f 440/3/4 439/3/4 441/3/4
f 442/3/4 443/3/4 444/3/4
f 444/3/4 443/3/4 445/3/4
f 444/1/4 445/1/4 447/1/4
f 445/3/4 446/3/4 448/3/4
f 447/1/4 445/1/4 448/1/4
f 448/3/4 446/3/4 449/3/4
f 447/3/4 448/3/4 450/3/4
f 450/3/4 448/3/4 451/3/4
f 455/4/5 453/4/5 452/4/5
f 456/4/5 453/4/5 455/4/5
f 458/4/5 455/4/5 454/4/5
f 458/4/5 457/4/5 456/4/5
f 458/4/5 456/4/5 455/4/5
f 459/4/5 457/4/5 458/4/5
f 460/1/5 459/1/5 458/1/5
f 461/1/5 459/1/5 460/1/5
f 464/4/5 463/4/5 462/4/5
f 465/4/5 463/4/5 464/4/5
f 469/1/5 467/1/5 466/1/5
f 469/3/5 468/3/5 467/3/5
f 470/3/5 468/3/5 469/3/5
f 471/1/5 469/1/5 466/1/5
f 471/5/5 470/5/5 469/5/5
f 472/5/5 470/5/5 471/5/5
f 473/1/5 471/1/5 466/1/5
f 474/3/5 472/3/5 471/3/5
f 474/1/5 471/1/5 473/1/5
f 475/3/5 472/3/5 474/3/5
f 480/4/5 477/4/5 476/4/5
f 481/4/5 477/4/5 480/4/5
f 482/4/5 479/4/5 478/4/5
f 483/4/5 479/4/5 482/4/5
f 484/4/5 480/4/5 476/4/5
f 485/4/5 480/4/5 484/4/5
f 486/4/5 479/4/5 483/4/5
f 487/4/5 479/4/5 486/4/5
f 493/1/5 489/1/5 488/1/5
f 494/1/5 491/1/5 490/1/5
f 496/1/5 493/1/5 492/1/5
f 497/1/5 489/1/5 493/1/5
f 497/1/5 493/1/5 496/1/5
f 498/1/5 495/1/5 494/1/5
f 498/1/5 494/1/5 490/1/5
f 499/1/5 495/1/5 498/1/5
f 504/1/5 501/1/5 500/1/5
f 505/1/5 501/1/5 504/1/5
f 506/1/5 503/1/5 502/1/5
f 507/1/5 503/1/5 506/1/5
f 508/1/5 501/1/5 505/1/5
f 509/1/5 501/1/5 508/1/5
f 510/1/5 506/1/5 502/1/5
f 511/1/5 506/1/5 510/1/5
f 514/1/5 513/1/5 512/1/5
f 515/1/5 513/1/5 514/1/5
f 518/4/5 517/4/5 516/4/5
f 519/4/5 517/4/5 518/4/5
f 526/1/5 522/1/5 521/1/5
f 526/1/5 521/1/5 520/1/5
f 527/1/5 525/1/5 524/1/5
f 527/1/5 524/1/5 523/1/5
f 528/1/5 526/1/5 520/1/5
f 529/1/5 526/1/5 528/1/5
f 530/1/5 526/1/5 529/1/5
f 531/1/5 525/1/5 527/1/5
f 532/1/5 525/1/5 531/1/5
f 533/1/5 525/1/5 532/1/5
f 537/1/5 535/1/5 534/1/5
f 538/1/5 535/1/5 537/1/5
f 541/3/5 537/3/5 536/3/5
f 542/3/5 539/3/5 538/3/5
f 544/3/5 541/3/5 540/3/5
f 545/3/5 537/3/5 541/3/5
f 545/3/5 541/3/5 544/3/5
f 546/3/5 543/3/5 542/3/5
f 546/3/5 542/3/5 538/3/5
f 547/3/5 543/3/5 546/3/5
f 548/3/5 537/3/5 545/3/5
f 549/1/5 538/1/5 537/1/5
f 549/3/5 537/3/5 548/3/5
f 550/3/5 546/3/5 538/3/5
f 550/1/5 538/1/5 549/1/5
f 551/3/5 546/3/5 550/3/5
f 554/2/5 553/2/5 552/2/5
f 555/2/5 553/2/5 554/2/5
f 558/3/5 557/3/5 556/3/5
f 559/3/5 557/3/5 558/3/5
f 560/1/6 561/1/6 565/1/6
f 562/1/6 563/1/6 566/1/6
f 564/1/6 565/1/6 568/1/6
f 565/1/6 561/1/6 569/1/6
f 568/1/6 565/1/6 569/1/6
f 566/1/6 567/1/6 570/1/6
f 562/1/6 566/1/6 570/1/6
f 570/1/6 567/1/6 571/1/6
f 572/1/6 573/1/6 576/1/6
f 576/1/6 573/1/6 577/1/6
f 574/1/6 575/1/6 578/1/6
f 578/1/6 575/1/6 579/1/6
f 577/1/6 573/1/6 580/1/6
f 580/1/6 573/1/6 581/1/6
f 574/1/6 578/1/6 582/1/6
f 582/1/6 578/1/6 583/1/6
f 584/1/6 585/1/6 588/1/6
f 586/1/6 587/1/6 589/1/6
f 584/1/6 588/1/6 590/1/6
f 590/1/6 588/1/6 591/1/6
f 589/1/6 587/1/6 592/1/6
f 592/1/6 587/1/6 593/1/6
f 594/1/6 595/1/6 597/1/6
f 597/1/6 595/1/6 598/1/6
f 596/3/6 597/3/6 601/3/6
f 598/3/6 599/3/6 602/3/6
f 600/3/6 601/3/6 604/3/6
f 601/3/6 597/3/6 605/3/6
f 604/3/6 601/3/6 605/3/6
f 602/3/6 603/3/6 606/3/6
f 598/3/6 602/3/6 606/3/6
f 606/3/6 603/3/6 607/3/6
f 605/3/6 597/3/6 608/3/6
f 608/3/6 597/3/6 609/3/6
f 598/3/6 606/3/6 610/3/6
f 610/3/6 606/3/6 611/3/6
f 612/2/6 613/2/6 614/2/6
f 614/2/6 613/2/6 615/2/6
f 616/1/6 617/1/6 618/1/6
f 618/1/6 617/1/6 619/1/6
f 619/1/6 617/1/6 620/1/6
f 620/1/6 617/1/6 621/1/6
f 622/4/6 623/4/6 625/4/6
f 625/4/6 623/4/6 626/4/6
f 626/4/6 623/4/6 627/4/6
f 627/4/6 623/4/6 628/4/6
f 624/4/6 625/4/6 630/4/6
f 625/4/6 626/4/6 630/4/6
f 630/4/6 626/4/6 631/4/6
f 628/4/6 629/4/6 632/4/6
f 627/4/6 628/4/6 632/4/6
f 632/4/6 629/4/6 633/4/6
f 624/4/6 630/4/6 634/4/6
f 633/4/6 629/4/6 637/4/6
f 634/4/6 635/4/6 638/4/6
f 624/4/6 634/4/6 638/4/6
f 638/4/6 635/4/6 639/4/6
f 636/4/6 637/4/6 640/4/6
f 637/4/6 629/4/6 641/4/6
f 640/4/6 637/4/6 641/4/6
f 638/1/6 639/1/6 642/1/6
f 639/1/6 640/1/6 642/1/6
f 640/1/6 641/1/6 642/1/6
f 642/1/6 641/1/6 643/1/6
f 643/1/6 641/1/6 644/1/6
f 644/1/6 641/1/6 645/1/6
f 645/1/6 641/1/6 646/1/6
f 643/1/6 644/1/6 647/1/6
f 644/3/6 645/3/6 647/3/6
f 647/3/6 645/3/6 648/3/6
f 643/1/6 647/1/6 649/1/6
f 647/5/6 648/5/6 649/5/6
f 649/5/6 648/5/6 650/5/6
f 643/1/6 649/1/6 651/1/6
f 649/3/6 650/3/6 652/3/6
f 651/1/6 649/1/6 652/1/6
f 652/3/6 650/3/6 653/3/6
f 654/4/6 655/4/6 657/4/6
f 657/4/6 655/4/6 658/4/6
f 656/4/6 657/4/6 660/4/6
f 658/4/6 659/4/6 660/4/6
f 657/4/6 658/4/6 660/4/6
f 660/4/6 659/4/6 661/4/6
f 656/4/6 660/4/6 662/4/6
f 662/4/6 660/4/6 663/4/6
f 663/4/6 660/4/6 664/4/6
f 661/4/6 659/4/6 665/4/6
f 665/4/6 659/4/6 666/4/6
f 666/4/6 659/4/6 667/4/6
f 663/4/6 664/4/6 668/4/6
f 665/4/6 666/4/6 668/4/6
f 664/4/6 665/4/6 668/4/6
f 668/4/6 666/4/6 669/4/6
f 670/3/6 671/3/6 672/3/6
f 672/3/6 671/3/6 673/3/6
f 674/5/6 675/5/6 676/5/6
f 676/5/6 675/5/6 677/5/6
f 678/3/6 679/3/6 680/3/6
f 680/3/6 679/3/6 681/3/6
f 682/3/6 683/3/6 684/3/6
f 684/3/6 683/3/6 685/3/6
